<mxfile host="Electron" modified="2023-11-03T14:58:07.137Z" agent="Mozilla/5.0 (Windows NT 10.0; Win64; x64) AppleWebKit/537.36 (KHTML, like Gecko) draw.io/22.0.3 Chrome/114.0.5735.289 Electron/25.8.4 Safari/537.36" etag="RaYcZ_kp0B9Zu61BgWcT" version="22.0.3" type="device">
  <diagram name="Page-1" id="ymbr_WvRa5MthK_CXjth">
    <mxGraphModel dx="1444" dy="867" grid="1" gridSize="10" guides="1" tooltips="1" connect="1" arrows="1" fold="1" page="1" pageScale="1" pageWidth="850" pageHeight="1100" math="0" shadow="0">
      <root>
        <mxCell id="0" />
        <mxCell id="1" parent="0" />
        <mxCell id="fcOKzoYQkx1dZIKBnOqn-16" style="edgeStyle=orthogonalEdgeStyle;rounded=0;orthogonalLoop=1;jettySize=auto;html=1;entryX=0.25;entryY=0;entryDx=0;entryDy=0;exitX=0;exitY=0.3333333333333333;exitDx=0;exitDy=0;exitPerimeter=0;" edge="1" parent="1" source="fcOKzoYQkx1dZIKBnOqn-1" target="fcOKzoYQkx1dZIKBnOqn-2">
          <mxGeometry relative="1" as="geometry">
            <Array as="points">
              <mxPoint x="332" y="46" />
              <mxPoint x="332" y="126" />
            </Array>
          </mxGeometry>
        </mxCell>
        <mxCell id="fcOKzoYQkx1dZIKBnOqn-19" value="request&amp;nbsp;" style="edgeLabel;html=1;align=center;verticalAlign=middle;resizable=0;points=[];labelBackgroundColor=#428a3d;" vertex="1" connectable="0" parent="fcOKzoYQkx1dZIKBnOqn-16">
          <mxGeometry x="-0.0151" y="1" relative="1" as="geometry">
            <mxPoint y="32" as="offset" />
          </mxGeometry>
        </mxCell>
        <mxCell id="fcOKzoYQkx1dZIKBnOqn-1" value="User" style="shape=umlActor;verticalLabelPosition=bottom;verticalAlign=top;html=1;outlineConnect=0;fillColor=#0050ef;fontColor=#ffffff;strokeColor=#001DBC;" vertex="1" parent="1">
          <mxGeometry x="394" y="26" width="30" height="60" as="geometry" />
        </mxCell>
        <mxCell id="fcOKzoYQkx1dZIKBnOqn-6" value="" style="edgeStyle=orthogonalEdgeStyle;rounded=0;orthogonalLoop=1;jettySize=auto;html=1;exitX=0.25;exitY=1;exitDx=0;exitDy=0;entryX=0.25;entryY=0;entryDx=0;entryDy=0;" edge="1" parent="1" source="fcOKzoYQkx1dZIKBnOqn-2">
          <mxGeometry relative="1" as="geometry">
            <mxPoint x="301.5" y="411" as="targetPoint" />
          </mxGeometry>
        </mxCell>
        <mxCell id="fcOKzoYQkx1dZIKBnOqn-2" value="" style="whiteSpace=wrap;html=1;verticalAlign=top;" vertex="1" parent="1">
          <mxGeometry x="254" y="166" width="310" height="130" as="geometry" />
        </mxCell>
        <mxCell id="fcOKzoYQkx1dZIKBnOqn-4" value="" style="shape=image;verticalLabelPosition=bottom;labelBackgroundColor=default;verticalAlign=top;aspect=fixed;imageAspect=0;image=data:image/png,iVBORw0KGgoAAAANSUhEUgAAASYAAACsCAMAAADhRvHiAAABFFBMVEX///8mJzD/S0u9QEN9NTsgISsAABMXGCQAABYZGiUAAAVOT1QAABELDRysrK7U1NW7u70AAADz8/Pf3+BcXWKNjZG0tLaAgIOUlZhCQkoAAAxjY2jl5ub/OzsSEyAFCBnGxsj91dX/RkbBQUSenqF1Iiru7u86O0K5LDD/Pz//NTV4NDqioqR1dXlVVltsbXHbzc7JtLW4JSr5vr5yGCJ6LjT3SkqINzz43Nzdq6vVlJXIbnDgurrDXmD+9fX7Vlb8gYG3mZv+kJD5mZn6tLT6p6eXaGuIS1Di19iRW2D7y8vapKXGY2X6X1+gd3n6bm6rh4n9fX3BUFLQvb/eQEGhPEDRQ0XAp6nnR0iGJSzSJSjmysqtIgt3AAALHElEQVR4nO2bfYObNhLGjXdlwAZj43fZC8TrteONX9ok29vcXb1JNmnT3KVpLtfrvXz/73GSwCAJsJ0W7LUzv7+8CNDoYWYYSWyhAAAAAAAAAAAAAAAAAAAAAAAAAAAAAAAAAAAAAOzIiz8f2oJj4MXTx385tA0Pn/HTs7PHfz20FQ+e7y/PiE6rQ5vxwHnxmKh0dglht5EVUwnCbgss5M6+6rBb3b3cNvYXgTORsPv7ttu9uvkmI8MeFrfXw+vXG4VaPT0L2RJ2v11dXf2WqXkPhg/D4vD6foNQYchtC7tvb67Oz5+PszfxIfBmWiwWp9O3ae1/e8yptCHsPj8hIp3f/JCPlYfnukiZDt8ktvIhx9zpReJp3/z4/JxydZqpifByWPSFKj5LaP3H5ZmkU0LYvfvp+Q1T6fwmd3MPxaOLYsDF3Xu5UQy55LBr/LAW6fzm1X5sPgR3a5mKw4sPj4Smd09llWJhN/45FIkk8ME+Dd8vb6fFSKjrj7dcUyzk5LCzf+FEOr/5ae/G74/VdbHIC/UpFCoecizsvg8vfcWLRBL454MMYE+sk3goVFBvJoUcH3akmjwXuDrgIPLn/UWxKAnF6s3EkKM8pa2smhS4+eXQI8mXYozpxduUkAvC7vO5LBJJ4O8OPZB84ZN4KFTxn2kqEZ1+jYt0fvPjoceRM2ISj/hXuk5/ist09e2hx5E3H4fJOm0Q6klcpkOPIndiSTzkuxShLn+Vdbr5+dCjyJ80b0oXKhZ2p57AKfcJSTwS6nKXsDv1BE5JS+IB/04QSgq7U122FElN4ulCiWH33D70EPbBs9QkHgq1MexOd9lSZFNyCpDrTT7snp/ssqXI/ZaoSxKKD7tD278nbjcn8TVSdbB2p6sTXrYU+bCLO0llVBh2p7rvFOfZDtkpJlQQdl9LAqdsfdclCsXc6bSXLUVe7xZ1vlCXQtid7r5TnB2TeMC63qRhd+rLliJ3X+BOnFBPTnrfKc6bXZN4KFQQdqe87xRny/w3CVpvXv7n5JctRaSdqJ0gL73Hh7Z7z6yGXxp2hOF//3dou/fN6v67C8J0Oh0ON3oWaR5Op+xcYTf962F1+/7Z2/vXnz7eDa8pFyL00PTuw6eX92/fvL/9ar9ZFVmtVreERz7kFzlwaJsAAAAAAAAAAAAAAAAAAABOjWP+7rHdrIxy72QwWyoaxtjpdbzcO8uK0Ww2qwa/5xght5Jvf7UedpDCQLpb6hzJx1h1x3F7/s9GnRpfquXYW6OnBRoF6OVujt1lR5k81cCBai413MnR7loZ+W7kEHRfMNF97e5o1K2mXX84OJl8bzJCb/KoyVl+4NJmHeiGMh9Vq7NOD6vs7x53ik29e5FhnxnByVTolHWkRTa2DMepW9l15T8GvGysD4y7BvUoZxmdY5eIPc3s+swKXqZCbdnnHL5FHraWoUw9qonr8YfGPZ0cK0edHIVMIhnL5BnUlxrS0QkSDACZ5nrS+6HBxAvLApCJ5msjXnz3iTuZ4Wvjq5fJxqSnXvx4tW4Y9cjJqEz9tFtYtVpNjNqx5XnWhhJ1QNs3vq0b5ATx4ZFrYpdsk0nOJb+bgZEigE1gPyZi5an62lmkmnPa9MeirJlmvRVdaXUQ1lxXw+rcS7pxdaEZtN0oVcRSrO2Qdwl1AKtfMugNemG7tXTpNYY5F0bOy1QziUXsAs8ULFZKX6RIImPqTZNNZ0gyBXnMIv7lEpnmfmmqho7XWGA9LOaNScztW+GsiHRsarxQbTK8ksUqoKDdnTCXtJvhPfU6n0cFmciDM32ZXFEm/PukESjT3LRpCpfiTRoxql1YOMLRQmFWF05HvJsRGrojPWnOk6lMJJ00OWdAKnHpgaPzV3QE45O8SZLJ+IMSUSpkWPpywwkIG4bGTDYodU6m2ogYhBxX08qBGi3MHrlrYGy4bHDanLuX5YuoasSlSgZTzIzamUwNck9kkus1NhmgeRMh4lf0jia7Gre3yFQjedVgnZu+yRnIVKXPTtswYxwQGuQktBjTnwM7lEkdOQrClZlnWW2PHZ3ROgLhpUfc0/bmmA6rFC0CjQ0mktlioTiosvkj9niZTOIKWsUjnTRabDKg1TqqYvTpkXF7wpR1tshkEyvHHZ3ejFmcycyOPSG3v3HpJF4QUJkUVVF7fEq16LzHqYRmDSrUI+rhKRUkuRc9EL1nqUyKruB1vhoo9HxdVzRvfUqLnuKG7pQsk39mxpMVK5j5djbcM0UmRRWjlaYxRzjU1PmB0JATHZeGRjgFYDIpOFoyGmt+bvGiC/pCjtijTMEKAV0iaHkpp6TIJL0i21q8jGEDD6wdV3tYE4UlYRuNzfcmLkOzsSo6n93Y9EBd/7VPmUidEbxJdBdXukm3TpGpJJ5LnUl+adK3DjfyRktsb2hcM5MJ80Ul60UcLO0kPGevMhXseV0N38CaG68Kk2VCinBSA0u+wKD5RU/vmb8xlUnsxaa+YwpX0Dmosc5++5WJZMuO5kZVYUmRViqTZRKigbzmSAAZsekBNRenv2tK3ECpTKqQuqhMUmTTN1hp3cu+ZaLdzNVSWCC7itBDskyqWDo2kexf7LYmP4eWoXMeQSazzTczmcQZ56FlokaPejjIU6jO73ntJBN9qcXrVDb5myV2Z1sj2tnRyUQY15ZBsWtwIuwiE1trqHRkliimZ6FRm3WaEwdrrFo8RpmYuRNWwJSjUNlFpgGrwHUZJL3krW6lXDIdHUUT4COViWRjLE4KdpGpUVLSiGTyJoYazY2RYx61TAWLvYnDTneRyS841STC+Ukf+xoh3TE1rDdHA/OoZWLlMQp3vXb1JlTpJhKM3V920TWz0hnV/NVNuSA4Mpmo/Yq7/mMXmej0X6qkJOiyi4KMFm/8scvU4ycFOxUECTM6EYetH4mzlSORyQ7XvCUW/ARtJ5noqog4sRCh68KKLnV2HDJZdcPAiat7ivKl3rTNsKojz0X8SD0CmeiOQeLd/CooNHcXmTwtaeobQd8K4ia8P7YjkImtSyQlXjoRj5a/7JKcdxJkYjujWF4F7YSLWLMEmZooT5nczGTqOsJy9JqawZahQ3NZ6cifkCRTVygifAZl1TUWLHjZOMTZHfuAIR+Zuqp8sz+Czept2Tvb7CiniyMvwiXJVKA1tSmGHffNxgDLWg/M/CYrNBNmuJ/PihkFd7g30KDPdkDKXnSIBceEOydRJqauuYjibjChSwDrr7FYgHP7cp7J9gTykYnNIzRp3ewPsGALl6qxrFpj2x54o4o/o3B5t6iV2BSsM5t1/CW2RJkKczZHMzp0uyjcgQr9i0WyrrT9ndzawiCPOzeZ/G1Yt9KddbP5DLpiBvNQje79ucHSnCHmdfZhmKI7TrCZmCxToc98U3cNB6nBfqYTZasmeyKmgXo9RJdrkDvO7U1X8NhOCFIdBxUyoSNuaLOBlqWVNButtxV830iRqdCS74V5uXvB1ri/ioLKVn7lJUni5bUJGX2+bVUwt7xB/Kq8jN3ZXvj7zcHStIURMhNkKlgTI9rx1zXFE1o79bARuRMSv3WE1PVAqyWESqJMtFlaCzcRCjdI+atrBkJiLmoHX3W4mX0sbrUmWDPpB8+mhiujxCV+b2liEpX+w20s+v1m8tqtNyfxZpqma5hLT25szN0S7cfFPSYIuU1/7W+1JrmncIXNN/uMyEmLtX18s0evFgWxRxNiMVYzqwvoPa32bDSq1jaVZOMd9+MHXrvd9lI+wqL9VL09/R+Dvf7oAQAAAAAAAAAAAAAAAAAAAAAAAAAAAAAAAAAA4Bj5P5JqFZ93I2r4AAAAAElFTkSuQmCC;" vertex="1" parent="1">
          <mxGeometry x="368.68" y="198.82" width="80.64" height="47.18" as="geometry" />
        </mxCell>
        <mxCell id="fcOKzoYQkx1dZIKBnOqn-15" style="edgeStyle=orthogonalEdgeStyle;rounded=0;orthogonalLoop=1;jettySize=auto;html=1;exitX=0.75;exitY=1;exitDx=0;exitDy=0;" edge="1" parent="1" target="fcOKzoYQkx1dZIKBnOqn-12">
          <mxGeometry relative="1" as="geometry">
            <mxPoint x="516.5" y="596" as="sourcePoint" />
          </mxGeometry>
        </mxCell>
        <mxCell id="fcOKzoYQkx1dZIKBnOqn-20" style="edgeStyle=orthogonalEdgeStyle;rounded=0;orthogonalLoop=1;jettySize=auto;html=1;exitX=0.75;exitY=0;exitDx=0;exitDy=0;entryX=0.75;entryY=1;entryDx=0;entryDy=0;" edge="1" parent="1" target="fcOKzoYQkx1dZIKBnOqn-2">
          <mxGeometry relative="1" as="geometry">
            <mxPoint x="516.5" y="411" as="sourcePoint" />
          </mxGeometry>
        </mxCell>
        <mxCell id="fcOKzoYQkx1dZIKBnOqn-5" value="" style="whiteSpace=wrap;html=1;verticalAlign=top;" vertex="1" parent="1">
          <mxGeometry x="194" y="410" width="430" height="185" as="geometry" />
        </mxCell>
        <mxCell id="fcOKzoYQkx1dZIKBnOqn-7" value="" style="shape=image;verticalLabelPosition=bottom;labelBackgroundColor=default;verticalAlign=top;aspect=fixed;imageAspect=0;image=data:image/png,iVBORw0KGgoAAAANSUhEUgAAAXYAAACHCAMAAAA1OYJfAAAAbFBMVEX///8AlogFmIoAkoMAkYKBxr9ft67h8fAPn5P3/fw2ppvB5OD6/v7G5uPL5uPl8/LX7uxSsacgopft9/bR7Onx+vmu2taUz8m23tp5wrqMy8RFrKGFx8Ck1dBvvrbC5OBMsKac084Ainpbtqz3uiCUAAAKCElEQVR4nO2c0YKqOAyGLUVAxJFBFBRldH3/d1xo2kLbFNw5o+Pu5r86ZyhQP9IkTQuLBYlEIpFIJBKJRCKRSCQSiUQikUgkEolEIpFIJBKJRCKRSCQSiUQikUgkEolEIpFIJBKJ9Bpl+06r3+7F/0r5pb2mSRAkRRNVG2L/CpXHhHGmxXkQrbPf7tR/XXXDOQsMMRYmt/1vd+zHla1WvRt9h7G8aWzmkjxPLrMWv1v6tX5F76XyY3/Hynd4ldfVMfpMi86Ldj82Se/HS4lYVS06fnpmT0H7I7MNfQT+ms+cHofcp/Anep/t86+qnevFYhH1/QjD0nO47Y51DcZuNORJu7bN/iguE/xxt+dUptw28pSNH8Fh+vx49FMsca/tPa6sLVgYhh9z7XLoBo88xyO0m5yn1nheinbJn3d8WnXg+BdWjx8E4+fJCzwZ+yrtrz+PvVXd8IwLHHvfycY44zXYD7aDCQLexqH5h+PUFSawhz+CnT2Cfat64eusxK4d4Ih7UI/avQR7jcRSts1N7NPcJfYEUfA67MtQUQy2aAPAnjT3qO3Uxdak8/UK/Ij7K7BvEOodYxt7MOUtJPb1InP0E1naY9j3wdwQE9jHnj/bHj6Z65legH2bILYexC72nqpPgJ1/PamPj2G/CWMH9gU62XCw9+ozZ9H7q/7TC7DfkWydLxcu9oAlO99FJPZnpegPYYdG7Ca4h2jqhWLv8iTgHmqreT72i505CmPfYti7OOu7yjtgrwXTRrJtsCkejn2x+ITu6wNPx74rMGPvs0UEe8A3nss8jH212+2mvf1qv3Oqnw9hF+z4oY9V/T+wrvqwy3w/UPd9OvYTZuxJnwdg2FnjucwD2PdlX9ssutymSKNbjLbZ1W0jWjTRqR5l0oCdH7bxIPvRlODTuz+nDIfrxy7NXc9un419h8TTgIvpPIbda+6z2LcN6+bhOlkLeeO23bZMN+ln7YUuK0i3zcY1h9o6+yiQ9hnMQYRWjuSQXuwQjfU1n40d9ewQOVHs7BO/ziz2WKfUmnxk2etlXHMWFHQoUdjH51vYtyKSinw9g6CKzKu92NeA/Sb/+2zsjdfYPdgD3DvMYh/l1Jrq1eB+sh8M44rCI9ir/nQZ84Fa4AZVL/YNYFfZ/pOx5wh1lkDKi2IPBhSG5n17ISy8LwDqeWE4TowOyrsAANFIh9B57NL7gw+ECInkkG9i7TfEx6jJKI6d3dELzWO/hkHTVod6va5Pcn7CwqF9N2kTV0iO9UdZburqnoSBniZI7EZPzHsBt1TdTOaStrzYL6HxoJ6MPUImqIkc+vlQ4Bgfxqd/89jrejcM+q8C2qf6LxDT+HKYkO3qpf63tOX1fjfIdCF3UaK8yP/JoOqU3b3YYcKkM9TnYs+QPEZ7kTwppEzuaE019ufKqHYFGLe+GCTdvunYbN4eg4Eok9iLseMW73zYVzLyqIf+XOw718doYx+0NLDboQwkS2HVxtaXZz2wBPNS5rlKcPNUh+ewn0OT5xG42SPTh/0MI1sPvudiL13s/GI3ii0vg9b2JPbQ0V94BVYRUOYNiQ7H06R57DJlHAYbPFXnx3iwy3CujeDJ2NcOdjHLM9WajRhadvcuc4S+6hkEMRX1JHYf1znstbhYMfwha9CgimJfVbKvw+B4LvaDg507SZdl7AFD/e8/xw6VE0VqJXz9t327gGysld+gQ5bXcrFn8S2VucMo4XwxdpbOGfuPYc+Z8cvkcpvj4kAz2OXdx8EeJq18aTaEu1w/em2+vg6ntglUwjaeRbwYO2bs9pOZws4f9+2x4JKoiHuQv75F3fsM9pMw4qvxtxYLqsZaqpi7DfYxrlW81rczt0htG/u0bz9sbRkUs7y+ndu2PV02Wws77A3ol5JbJJ2Zxp4JDxWaI2UNQdW0I//OAW7s5nltJuMmh7Znn85kphf1PtpitGYPibvGvsgDTSC92InfNPYvKMGY42oP0cIs3Xmw87Axn/VL83Z2dVq07k6Oibx9apZapiHymwfsizLRx0NmbQCbxo6nhWfX4WPYxbYwe4C9dpaq5qWJ+gk5sm1papbqx15h0A3si200uFrOP8eMJ7HL6GmbA8RscyugjT0omvZSuqtdr63J6O6ooXlEEvtv1WTOKl+wdgYlRjBZ34eSOw/b4U6T2C9wzvXTUuDeQWUy/fz5o8zjrWd98RcqkMFQZowRY8e3F85gr1UGkbbVYb2uL+fI9u2g/FwMdeFUx+NJ7Kqeae95lVcZ98lbCrP0C/X2EXbX2JHigdA0dlm35Wk9WFceYNi7eHNoFHie7o0L4NhLzHkNMiC/CXZ0dUljx4z9W6tLYOz8Ph7SWw/2Tl9XNW9Us50p7GdfUqg0mrC9C3ZsLVVjR4zds8oxgx1+RWFMWGM/9u45yaxGJYUZYMfy01WBepjBzYzz+XfBju4ckHDdnP27OwegmG4uKU9iX+yvxrqctHYsd4VlJdaekfdIIKgOaylvgx3dJyOxY8b+rX0yWTNGqM6YxG7XVGCVDosrkJykyBG55DRaS3kf7OiuMIH9nxj7z2OHmoouSUbIeIH+w+PBX9SBevDotLfBju+U6bE71Zjv74EEJ2OimcN+MgjB3iNkkw6U7Tn+9obcJTKsIbwPdmzHb4/dKT3+wY5fqAaaDmoO+9GwdiifI2lUM+Fj1I2HUtEbYUf2t/fYXWN/YH+7p8EFWWKzsNtz351YXNX7hT7gCs5og81moadMr8qQ+rQ3wo68zdFhRzz7/NscPuyxLDtUo8R9Z2JfFtXYlHOwYr3Kp9LEo3o8ZSt81sm73VEIdhAMo/SdsLvvLnXYkdLj/LtL3uKA2rcfRJevsiw/NutDywzsVx7y9HhZb7qjddVAzj3apF5BnsiD+7mqlvckDIXPgg0HV2+/jmbV/a2wO2/qscgtPT7ypp4X+1YVdYflJ25gl0vY5kHGhsRJ2m0/L5KLQr0Jb8zNXK6kc1Kx+L2w2++lsuho278nRVOaq0BuAnwKr7CX2GEjGGzsFn0yC6Mo8H8UIZObJ2Wm82bYrbewWWGF2Qffwp6ot5eps6FX+Azp7W9/OdzDwpyU1taTC09qjHjT2oXMQ3Vofjfs1jcHrB1Jj35zIJxYXVpd0vFLA70/YUHRSmvfVg0bLSj37xRUdraa35muTXaB4Bx3SfvcXRe5qNaEMnW/i28JeOpKI4lvDvAXYO/fEwy//4WNFWy98+b1vTLxFo14ieYzOp4udWmsMsSH42f//aAgSHwfEMpvUf+OTdFEt7LvUg53nezdx7gNnDD/xYgYTppt9yPyfU/mJz+7kq1WKz8m8Z2X6c+8ZFPn/0tVLunrSb8j81thxPyFWtGX8UgkEolEIpFIJBKJRCKRSCQSiUQikUgkEolEIpFIJBKJRCKRSCQSiUQikUgkEolEIpFIpGfob3FUgogJTSThAAAAAElFTkSuQmCC;" vertex="1" parent="1">
          <mxGeometry x="352" y="436" width="114" height="41.15" as="geometry" />
        </mxCell>
        <mxCell id="fcOKzoYQkx1dZIKBnOqn-8" value="" style="shape=image;verticalLabelPosition=bottom;labelBackgroundColor=default;verticalAlign=top;aspect=fixed;imageAspect=0;image=data:image/jpeg,/9j/4AAQSkZJRgABAQAAAQABAAD/2wCEAAoHCBUVFBcVFRUYGBcXGhscGRoaGRwZGBsjGR0aGh8aGR0aICwjHSEoHRkZJDUkKC0vMjIyGSM4PTgwPCwxMy8BCwsLDw4PHRERHTooIyk3MTMxPTMxMzM3MTMxOjozOjExOjExLzExMTMzMTExMTExMTExMTExMTMxMzEzMTExMf/AABEIAOEA4QMBIgACEQEDEQH/xAAcAAEAAgMBAQEAAAAAAAAAAAAABQYBBAcDAgj/xAA+EAACAQIEAwYEAwYGAQUAAAABAhEAAwQSITEFQVEGEyJhcYEHMpGhFLHBI0JigtHwFVJykuHxojNTY3Oy/8QAGgEBAAMBAQEAAAAAAAAAAAAAAAEDBAIFBv/EACkRAAMAAgICAQMEAgMAAAAAAAABAgMREjEEIUEiUXETYYGRBaEjsdH/2gAMAwEAAhEDEQA/AOzUpSgFKUoBSlKAUpSgFKUoBSlKA1MRjLaMiOwU3DCToGI1yg7Zo1A3MGJgxtVp8R4fbv22t3UDo26ny1BBGoIOoI1FQpxtzBQMQ6tYJIW4SEKkklVdr12W8IO32AgSlvoFnrFeOGxKXFD23V1OzKQyn3Fe1R0DNKUoBSlKAUpSgFKUoBSlKAUpSgFKUoBSlKAUpSgFKUoBSlKAUpSgFKUoBXletK6lWAKnQg160oCCsYG5Yf8AZsWtnk7u7DyUQQBpvUwjSJ/PSvutJsGF8SeHUk6FiZ30mum99lcy0/XT/wBG9StVcWCCdRAnUFZ9JrRu8Sm3A+bY/wBRUaZfOOq6JilRQ4qFUFwSecAfqa9cNxVH6rO2YR99qcWRUueyRpSlQcilKUApSlAKUpQClKUApSlAKUpQClKUApSlAKUpQClKUApSlAYoa+LlwKCSYA3NRWJxjOQF+U7nmfXpUpHUy2zRvuHZiugnTz8/KiWWnf0rbtWddq8sRbjl6f8AVdK10acje1p+jXdCx1GnXYVm5a5LJ0100rcsEkbH3r1RetOeiLhV2R1riV21oQGX+KQV+kmK3MB2jtXGCGVc7A6g+jD9Yr2uWVYa14WsDaUk92IO8fmPOp5RS6M9432mTlZrxw4AUANmHInf3r2qs5FKUoBSlKAUpSgFKUoBSlKAUpSgFKUoBSlKAUpSgMVr4nFKm51OwG5rYql8RxRTE3BmnXWeWYCAPQEV3jjkwmt+yXtYzvWIYbcuVejXEXSQJqCbHLbdCDOYiQNeWo0rf4gnMdQdeh9a7rF7W+mWLNKTS96N9H8URWticSE3MHrWrdxLyAo1AA05184zXKWGpEgnakYtP2UeR5CSeu0ZTiJzmZCiPf1rabHnLmCjyrysWw/iUiK9L9qQACSqzp0Jo1PLWi3nVY00/bI5+MtPn9K+L3Gzl0mdZ16c60eLKLYnn9uulV08Rg5uX9/39K348EWk9HzfkeV5M5KhVs6DwDGM5kGQCAyncA/Kw+8++9WWuddj+IA4kbw6lfL/ADCfcR7+ddFrF5McL0ep/j7q8W672fVKUrObhSlKAUpSgFKUoBSlKAUpSgFKUoBSlKAUpSgMVEcS4DavEsQVYxLLEmNBIIIOnPepisVKpp7RDSfZF8N4MlkyJY7AmNPSpSlKVTb2ydaFVTtDg3NwFRoQOcRvVrqMx6qXEnULt9da7x1xrZR5GJZZ4t6Irh9sqMvpNYxOJ7tjIOo06VtXLqrqKieK40XQq5Yyzr9q6lVeRNr18mbLknDj4zXtdEbxAi6xVmVFO7E6Dpt/etVXE2gxgEEKOQgaaTUvxO1AGogjaR9/PSohbTMpjSJnp00616+L0vXR5yUNc2/q+SV7MNZa8lq4ChYg2rgOVg4Oi+atAEHmNN660sxrvXFcK9pXt276nu7sI7qSDbn5biN+6VYCfRpHKux4O2yoqu+dlABaILR+8QNJPOOfSvP81atM9bxGnHo2qUpWI1ilKUApSlAKUpQGK8rt5EEuyqOrEAfeqr2x7U/hz3NojvSJZtD3YO2h0LHeDsNeYrmmL4ifE7s1xjuXJLDfWTsOftWrD4lZFyb0ijJnUviltncMPxC05i3dRyNwrqx+xrar84PiQzo9uQ6mRyadwRBnlvXUuwHa5sQTh75/aKPAx3YDdW6sBrPMA9JM5vFcTyT2WRTrtF+pWK8L+Mt2/nuIn+pgv5msh2e9KjP8cw8xnknorH8hX3Z4vYeYuLpvMrzj94DnU8a+xLTXaJGleVu8rfKwPoQfyr1qCBSlYoDNKVg0B5XboQFmMAakmqbiuNZmLqIEkew0261q8b7VJdxP4e2wKr+8NVZ/I7EDb1noK077gan/AIr0MHjNTul7Z4fn+ZSrhPpL/ZvNjC2/9+VeLvPlUHieKrByGYMaax7fWtXD8dE+LQnUdN4ifatP6Bg55LW9NmzxByp1kjziP+aifxDPcChgssBqcqidNeUAmpnE4wXbZWYWZ5TOscp01+tQ2I4cBbB5kkg7Aj+kyK0TtLTLPGhfJrhRexIsd4F7xyqMYIlgQgLRsWgbc67L2XGIXDqmKTLct+CQwZXUfK4Mk/LAObWQetcExNso2s9RHnG30/Kux9gO0j4lHs3v/Ws6SYzOogZmHJgYB6yDzMYfNmmtrpHv4JUrSLpSlK8w0ClKUApSlAYrxxF5baM7GFRSzHoFEk/QV7VW+3+MNrh+Idd8gUagfOwU7+ROnOpmd0kGcixmOZ3e8/z3GZzrI12HoBp6AVFNfJLGdOmvM7/cb9a1lubkkknmCeY2M77kf1qQt2VYqVVlXKA2xYnLqQDAALfQGvdl6XozOZXtnhZ4VduAm0j3CN1RHdlnUTlUxXrgMVcsXUfVbtpw0MCCCOTqYOo0I6Gv0BwPhy4ewltQBlUZiBGZiBmb3NU74n4e0yW/CvfSTm2YIuhB6jMRvMaxWTH5PO+GvTO7+mdkTx34iXLttVwyPaETdeVL+aWzrA/jInoBvVQ4YpzNdYs7Nu7NnJM/5mkkwNz1r54ek59NiTG4A1A19fyresXUlbSmCBPiIA0/dHnroOfvVyxxjWpR3idM2VxbqZBMT1167c6Ji3NwBSRsY9dq2rmEOoUmGiQIjqCdY3+k18Y1UtuQqmCFDAMCTtMHUfX9IqJ0+ictvXs2r2Ma4pmPCOsH6k8pHnX1guKXlHhvXEjSM5K/RjHMVB3iDop0kkSdQOhMDX00q+8V4XhreGa4jZrhCHW5mMsVUmJ6GoyKY0tdmWcrpvfwfPD+0OJnxXM45SiifPQT1qWvcUxWRmTu4G0ofr81VLCPlKgHl/YHtV1scWtraM8h+dZfInhpzO/4OsLVcuT9fkp/E+1OPAbKyplGpW2DGsa55+1QbYu/iSRexFwroYzwGnoo8PntUtxV+9Yso5EAkjLp4jvA/T1qIwlokTlmAdIMAR80DeI5+VehjiEt8UmeVeXJe5mvwRuLsXLc5ZgsDsN1E7jXToOtTyv3lgZjBbb6GYPStLEqGWOYYCD8xMT8u8bV44K665k0OfQDQ67yvSrKaXs5x4bypJ+jI4aBadgygLkJEiWnQwSAdyZA+8VFXLKESDoIEfn/AEqWxDo6ZZYMumXL1Go05eZ6+1Q9q4Aw1VlYyV1gSY8UeQnTrSa2jXPi3D72eZvPqknTaBqY8v18q28JxElCjScxA1Ph5nWNvFl0jaelZGHIvqrOFDMAzA6L9QIYSQehnWt7tngbdp0a3ezyqjQyQFUARA5Ac+lculsucSmpaId7jKYzTHiDSQVKnRlMTIMcq6z2c4UHxFjiFtFti9hm75F0AuE2joPMh5/0A7k1yzhb2nuBsTcZVaczwXaYMSBqQTAnp6V2XsHbK8PsAmfCxB12Z2YbjoRWPzK0tr8f2a8aSWiyUpSvMLRSlKAUpSgMVUfibP8Ah12BPit/QXFJP0FW6qt8RsMbnDr4Xdcj+yOrH/xBPtVmF6yT+SH0cHfeY3P9/nUjg8U69CsiYAkx7TBHLYxUfkJ9td4/Otq29sCPESwUGQAASTIEEyIy66HfTr7XyU0to/Ss1WbnDrGLxWIW8gfultKoJIjMrOdiOZqR7M4zvcLbaQWChWjqoA+4g+9a3CbeXG43+LuD/wCDCPsa8VJzy+6/9LGt6OVccxKWL+Iw6Lktq7BVmdROs76AwAZq68Q4HYt8NN22q23a3bY3GZv3ymZmknkTXOe3JjG4kkRF1tY0Ozb+ldS7TIRwYhtCLNkHyg255H8q25m9R++iY+l7R69m+GYa/h1YqrPs7hjJYD5jruRB251WbXCDcxSIRobgDA8gmrD6KdfPSvv4X41kuNauHW8ucf6lExHLwyfYVdsHhSMVdYooQAMjAmTnHildhqra+dUu3jql/R3mh09/yVLtzgcNYRUtWwrvmZt20AyCQW0MtIO/gNSfFOzWFTC50tKj/szmzNzKzuY1BI960O0Krevu51VVKLG+kj6FgT/NVl7QqfwRAJGlvbn4k099q7dOVC2979mTjLdNr4IXgHAkvHOxOS2cqx4SxGp1GsajUHX2qYX8C7dwApbaIYajkH2J9DXvwBCuEUCc0OfOSzHXzqgvhXhTaVic4KkfNIgrEbHQUX/LVbrWujnXGZUpPfeyX43wn8M6tZmGnKOc7EEnfRhHX85XCcCw+HtZ8VlZjGbNJQE/uqv72vr5QNKgbC4lb2G/Em5l71IzloksAPm57bdasnbTAvdtLlPhQlm+kA+wLfWou6fGHX5Z3g8SJttLvr9j5sYDh+KkW0VXGvhU2nHLNEDMJ5kEVRr+BFrHCxdZUIdMrQYuBiIiNi0x5Gd6leyNx2xyasclt1bpEbctM0V69traniWEOUFgLc6kaC4QDpvGZj9OW8w6i3G/Wv6NLxyq9IsOM7K4XMj5QiqSX8TDNqMomdBmk6Ea+tV7F8FwlziNi3bRGtNbbvFQ+ElO81YqZnNk3PIVYu21gPYVCYBcEgfvZQSB9dfatLs7w60ty24EOoIieWVuXqzH3NUTbU7bfyaIx7h039z54pwLh2HZLl6FtiQtuXbO5nMzCSzwNI2EmZ0j4xXZPh+OsF8Oq22M5LtsFCGHJ10nXcET0jQ19dusCt0jMwBS2zAFgswwkCeZAr7+GYjDXP8A7mj/AGW665Uo5KnsqeP6eRyMYN8zI2UMgywuc5ipywMw3PsNOVd/4Jgu4w9mz/7dtEJ6lVAJ9zNc27McMW7jjpolx3bf91yQOgliK6wK68rJvUipU+jNKUrIcClKUApSlAYrXxuGW7buW21W4jI3owKn7GtivK+GKsFIDEHKTqAY0JHrRdg/OGJwDIlt7mneW+8TTlmZD91J9CDzrWUSVHnvGusCNDsI09TVm7b4i2+IWzagWsKi4dD5pOYjXaYX+Umod7QUIEOdmgZQIaTGgjcFj4eZ00G1e7jbqU2UV9J074ZXcveWszGVS4AQRG6kg8wdB/LW9x/jS4DHJduL+xxVrI7qCzK9liVJA3XLdYQBOnlXp2U4I2HvDMIy4Owh5jO1y+9wA84IX618fFDhhvYEsol7To66xzytr0ysT7V5d1NZv2ZZE1rXyenFDw1wcRcVbhOVoGbxmAVzLIVtI+bTatji2Nt38MbbQGuBCVIMAyrETEGOvOqdwPs7c7tFa8QilWygKwJnMQDl1WNN6sWMtrcCMFgLsdz57denlS5Sa09mzFjXL6/g8cHhkS4joviQzPrEg61asbxJFRsreKNNDuduVRHDbRY5SR+v0r7xiAAga7g6dNd/18q59Olsq8itv6Svtw/QjMdttvOPT+lWXiGJt3MP3avqQo2b90gnl5VClxMwNxPT7V7YdiNNgOsaHerr+rT+xkmOKar5N3gmPSyvduCBmJDbjXy3ArbFzBoxcOoO8BjAOuuQaTqeVaNyzoDI5/aofF25JYaxpHoP1rlY1b3vsz5c36ekknroluPXrdy33jyAoPd9ZGpbTUHQfatjBcds3rJF8hDoGBJUH+JToRt7HSqdirDPbAUE7QAefM6+X0rFzBfhpzZX8AnmPENQPMeWulWVhjjx37+C3xHeR8n8lrs4/h+FDvaZWZt8jG4zRyBJIH1AqiYriT38Wl95Ud6hgSciqywumpECTpqSa9lKBwZGUAAzBPQ6T1J51m41uWCIfI6Qsj+lIlTt9s9acSktPaPjNm/bt902cq4JGVlMEESMwE/81rcL4gFvqzsVRMxMiYlSOQneKh8JossJCnwsI9v7862xiURlNxGKbnzE6zzjeqnCS0i2UlDlGe2/ELd50FskgKZOVlgzoPEBIrZ7EcasYfDsl18rG4SBlc6FUEyqnmDVZ4njrbu2QFVnwrodJ2J9RWEcNlLMCANd5hdNPb30q1YtxxZXkcqFJ0PsZg0RHuAgvddiY3Chmygjcbk69as1cZ4pxL9qGw824AK5XYZdOZ0OsTHpW3gPiLiLULdVbw6xkf3K6HQ/5RVdeNdfUjNa3t7Ot0rmDfFC4IJwqFTy71gfMA93BMR9au3Z3j9nG2u8tE6GHVtGQ9D5HkRofrVF4bhbpFb9E1SlKrApSlAYrT4tiTbsXbg3S27D+VS36VuV44qwHR0bZ1ZT6MCD+dF2Dh3DOzpuW8Hdc6YrEG2R0RDrB3zMVuazsB51dewvZNLd2/fuLLW7923ZB1CqjEd55sQdCdh61M9keGKeH4RLi624uLBPhYOzCCddiR5gmrLbtqswAJMnzJ51qy+RT3JGt+2fcVBds8WlrBXy5gMhQetzwCBz1M+xqbdwASSABrJ0+tcn7a8d/FPlClrFltNwWaCC8bEDUAb6k84qnFHKkaMGG8j3K9L2yJwPH7qK3duM2gSQI0/dIbT/ALronCsb+KtK5RVdTDgExpsQCJg+fSuP27iKLjNbnMItkOVysGzZso0YECI0ird2X48bRBnMrBQRlLR0HX2rblxpzuV7LsrdPb9P/svv4WG00jn9Z1rza2Y1Ok6zrz3/ACqewyDKGKlTGx3FaeLCyRB1OvSsCpoplqnrRBfhS2umxn22FYukKQp10ED0/v71uMIgbs2bblAnb7U4Zw7OwuE6KdtdY5en1q2cny+ijyIbnS7PcYdwmbLMidNTBHTeajHwLfKZGaM0qQN51P8Ae1XGs1x+q0Zq8aa02UyziWs500YbAnVtYGkfaoLH4lCGUlc3KTz01Gnrz510s2VO6g+wrAw6AyFWesCa6nKl70XYZePt7+xxvDYZ7hhFZupVC3sSB5Vu3yEzJJD/ACvIKkmBpl5QQK64RXL+IQcTcaAf2j//AKI35VdGXm+jbOV0aa31hUHKJnbbavLiLTbLAmIMiDCgaEennXtnWRzEidvU+29XPsfw+Fa4QZPhE7QIJI8joP5a6uuHs7eRStnHr9/eCBOka+mhrd4bdhCS5kToJzKJA8MaSQDueXpXZ8Z2dwl2S+GtMTuci5j7gTXhZ7I4JDK4ZPeSPoTFSvLjXTM93zOK4h2MqEYnoNTr4Z8Pn/SmH4Ji3Hhwt4z1tPH+5l0nyNd/w2Dt2xFu2iDoqhfyFbEVD85/ElGn9z824/AXbL5byOjCDlcFSR1XqJ0kGrf8KMRlxjoCYuWiSIgSpUjQE/LLAf6z7WP4tYTPh7JA8QvZZykwGtuxmNQJRJPkKq3wlA/Ht1Fi5HQ+O0NiJ2NXPL+rgdM51qjtVKUryywUpSgFKUoDxtWwqhVEACAPSqn277Qvh1RLRyvckloBKqpA0DaSSefQ+1wNci7f4sXMZcG/dqiDXTYufu8e1W4Z5V7Nv+PwrLmSpbS9kJjuM4u+Mly87qIMTCnXTMFAB96+EDNbIB1BGVQD4pkHXlGnrNa7eVdF7NdhwFW5iWYsYItgwq+TEak+QIHrWmqUI97LWHxJ9trfWij2uz96+4VbTF9NtEUdWaQB6HfWukdkeySYMNcuXO8ukamYRBv4Z3/1HppGtWmzYVAFRQoGwAgfaoztTwx8Thbtm2wVnAgmYOVgxVo5MAVPkaoeaq+nekfPeR5H617S0Vri/bAXHNvDeNAPE0Hx8oXT5fPn+divPAUE8hrsNBUD2V7NfhrYa6D3h3BgqPQjT71LYy2twQef6VzfHel0i2VPpL47PV+EJiEIuCbbrBEmWBjaNgev/dTltQoAAgDQCtbA4oMANAwAkfqPKtyq2zJkqnWmZpSlQVilKUBg1yriCItxyXBPQA6z4j66mJrqF64FUsdgCa5njsOqAgQXcknQxA3gEkx/Tatfir2yu8ihdmlgpd1togZmIEbSdPWQBr5AE11bBYcW0VBrlET16n3MmoHsbwfubIdx+0cTruoMHLrzOhPnpyqzVXnyKq0vgsVbWzNKUqgClKUBSPioitgdTqLiMokScs5o11hMzfy1Qvhvi8vE7f8A8gupz5qX5+aD61sfEt8QmMbvD4HUi0dGXIQoZVDAhWDDUjXUaxFOxiviuJWbqWrdtbKy4trlQAIyBj1dmYeZg/5TXoxPHDr4abOUtvZ2ylKV5x0KUpQClKUB8NXB+LXO8xF5id7jn2zGPtAruWNvi3bdzsisx9FBJ/Kvz/YeQCx9SBJHXeJ51pwL02et/inKuuXTLj2A7ONccX20tW28I5uwg/7VMHzIjka6tFRnZ3Ci1hrKDkiz6kAk+5JPvUpVN1tmPy87y5H9l6X4M0pSuDKYitK/gFbUeE+Wx9RW7ShM010V/EWijDSOhG3qCKy/EHSCWBXzG/5VN3bQYQRINQvEsKUQmAQJ11OnUjrUrssvJyn32SWBxq3Fkb8wNRr0MCRv9DW5VD4FxTu8TleVtXPBblwQp0IEec7/AMQ61fKm54szxXJezNKUrk7InjFl2NvKfBLBxMDUaE+h/OovEcPtiQoLuohByBPT61Kce4glpFDnW4xVR1IVm/IVGdnb5e9c+WEVNByLTBJnU6NWiOSjl8IzW4d8X2y0AVmlKzmkUpSgMVpcYxItYe9cJgJbdyRuMqkyPpW7Ub2gwLX8NesoVDXEKAtOXxaGY1iJ2qZ1tbB+esVi7lyO8uPdKjRrjtceNebagTJieY6V2P4YYEJgluQM15i5MEGB4QpkDQQ0RprImZqF4N8LAHD4q6HUGe7tggHyZ21jyAB866TatqqhVACqAAAIAA0AAGwArX5OeanhBzKaPalKVjOhSlKAUpSgKB8TO0C27X4VT+0ujx/wpOx82iI6T5TzFh4THMbVavihwxkxYvH5LqABv4lGUp9Mp13k9KreCw7O1u2G1dgo02ZzlHry1r0cUzONNHpeC9dr19z9A4f5F/0j8q9a+LSwAOgA+lfdeczzn2ZpSlCBSlKAxUdxjFlFHhlW8LHNljNp+tSNeWIsq6lWUMrCCDsRRdkPo5bxa0hIZ1hZKwSA2aSWnWRAA1Ogjar/ANl7zPhbTOZbKRO8hWKqZkzKgazrUDxXs07sLSR3bsD3hAZrYWZUA9QSOny9KuGGw620VEEKihVA5BRAH0q/JacpIKOKR70pWKoJOV/E3iKvibdkMR3SktAOhuR575AN9IuVO/D26rnElZ+a2DPLwk9dRJauccWFw3Dcu+G5ce73hLSJDDwEAeCJIgnaNhVr+HGORMZctg6XrSkHq1pmjc75HO2kJXqZMfHx9L4MUtVlVHVKVis15ZtFKUoBSlKAUpSgFKUoBSlKAUpSgKt8QsALuAu/5rcXVMTBt6n6pmHvXIkvABYAkaliIMmNAZiBGhAB1rvmPwwuWntnQOjIT0DAj9ao+H+GdtXUtfZlBBK5AJA3EhpE9a1YMszLVM0+PmWNts0+yvbZ+9WzfOdHKqrx4kZoADEbqSQs7gnc8umVz5vhlb8WXEXFDEx4RKiZAmdY018qvyAwJMmN9veqsrhvcnGeoppz/J60pSqikUpSgFKUoDFZpSgFKUoDnPxSw9pRauwFusxXMBDMoXUGN4JETtJ61zr/ABFVa01kNbuoc2fNIzAmCABoI0I2Mmuzdp+zH4y5Zud81s2c2XKoaSxUzr0yCq6fhXbMk4lyT/Ao/I16OHyMc4lNP2Z6xN3yLR2S7QLjcOLoGVwctxJ+Vh0/hIII8j1Bqeqpdlex34G67piGdbiw6FAASDKtodCJYejGrbWHJx5Pj0XrevZmlKVwSKUpQClKUApSlAKUpQClKUArFKVAFZpSpApSlAKUpQClKUApSlAKUpQClKVAFYrNKkClKUApSlAKUpQClKUApSlAf//Z;" vertex="1" parent="1">
          <mxGeometry x="214" y="526" width="55" height="55" as="geometry" />
        </mxCell>
        <mxCell id="fcOKzoYQkx1dZIKBnOqn-9" value="" style="shape=image;verticalLabelPosition=bottom;labelBackgroundColor=default;verticalAlign=top;aspect=fixed;imageAspect=0;image=data:image/png,iVBORw0KGgoAAAANSUhEUgAAASsAAACoCAMAAACPKThEAAABHVBMVEX///8fGhcAAAD//v////0eGRb8//8fGRn///whHBn0yav//vzfZgDmdBQgGhf///rldRTpcxIhGRfpcw3efjf/8eXncRepqKf///YJAADlagDd3d3kdRPpoG//+fH39/cVEAzoaQDdaAAPCQQ8OznYYADpbwBXVlTx8O65trTk5OTBwL/T09PkoXn/7Nj/9uX73sfabRviYADacio0MC7nnGWBfXpsbGthYF7bg0OOjYvIyMh4eHbxv5rorYD00bD53bbfj1P+58fuwJr0pmXVcyLsr4ztwKHto3X1z7XdlmfVbx3xvpDyn1nbjVjrkEzgh0DbeTv22Meinp09OkEoJibxr3xJSETshznfhE3nsof/89vSdS7ef0bnwZ8Tj+GzAAAXw0lEQVR4nO1cC3vayJIVrVYjIYGQZWQQMkjiaUx4+f1eJzcPJ7O+SbyObzKZ/f8/Y6uqhQ12nPXdD8fZsc6MEwcEqI/qcaqqhaKkSJEiRYoUKVKkSJEiRYoUKVKkSJEiRYoUKVKkSJHiN4aqcPyLJz8p7odQVWEPj14cn9QUXeFcFU99Rr8vbFsV/7Fh+VHrdCBsW5j6U5/R7wsu+Mtxu5j32vFeCf5hpo54P9ThaRQAV55rvQOzUlIfvBemctIK8o7rOp7TOkEzSw3rPvDyqhU5QT7Ie/lobygUe5YriPX4V2prBL225zh5+D/vBM7kjSLmuBICJYUJ1qak9qbw0djNF71isejmnfx4JOZsSCUIYesipUoRJ5ZTzOcDx/Py+Xx0WrvFFdiUgloiNSvAKws90PUd4MrJW0dznJBRgQgTQhdp0OKrVuA6jvePGCzL8dqvB7PPCoXbw9HR1tbqq/pTneFvApXz8rJfdD339eDUyuc9J++/L0M013XSpMDT260NaxLF1uRjCbPiM/VEXLbJh4EHkcpZLo9aThBARrROOBeA8nCUW/0+tiLfcZzAcydvRJmr5lOf9dNAJRkwsjxUVi8U/mICTEF4fz1UyuVBbms5jq2ImMp7kCj985r+bDsRKoZs5chCaTV5q4gheKPnFIvWl1dbH1uTqA1PoM3lXUyUXvSuLJ5vE4IjV8e+h453BsSdWc4YLKsI5gQPAklAEViVl3eDoue2zoRq6upTn/QTgZtCKZ+3PSfwg4FqCnvL8oquk28Xi2BOATqkBy5YDAJQXtb7mnie0UpF6QSSSQyWXUx+/6pxYYvhB/C78djz2qjhwagiCwIV2pfjbJSEqj7D1ims2rQVgfFnEIMHev6pDWWMov8RY7sBtYPj+BN/vPzlPy2I/GBqH0bPjiUJG4hCVQB/noEEhdB+DI9xRdTOUb4XnXZkWZ9W/3hZHm1EqObd8QlZ1TOEwGXroMlLJ/8EcgJ3AqFdx877aNxu+1a8vJob1UC0jz5EgVd0nDgnnmvtzHUI0rXBq9WNOIDIFLjxZ8WEQG+K8rfW8tarUY2rwlbUwSffCSLPsY6A3vIzJAtsSvDy6Oh0HPttF/IdpMHlIYR64MoW9dGwBs6IhaAofY0iLBLjY4hmqv6MuOI6RHQdpXrp7Hg5nkQuSigQDMUgOi2b6JaU6ARUOBDQVDE8nVC3dPKlDILdfkbhSnBdBxaweNmwrLZDmgDYAoHQnhzP2YzJORxa27LQqJz4dPhU5/xUMFWQ6eWTrbHlu67rICDhOU4Uj/eO5/swOraMFSgPIUN61t6fz66wAakpSu9bPqjNIpZ3KKMcvzXeevWyNj97AKZsqBNbbagO89GnP8WzU+soyz9aRBS5luv61vLqWQmlw3yD2MY68VUL+ISC+ftIeX5qAZTnt4mHTJFBxR8+fhuVhKKSrpobNiNVJy0fD3TGZ0J/fhMv27ZPI6yIobxzgn+8HUAFCJpUFdRLn5tzqeJk7IPpeW6cg6eeUQJMwHltLyKjyufd4PSsBBxx24Qf7CTPccVLn3xg1M1bf0DgeoZTeyDlywRzH4UrP/7+bjS0MZBD0czndWZZX52g9Tn+sW5zodtPdc5PBahhXsZRPig6Mr5Debz3ZmDjVEuZL4uxUzNuOxDbovEI4/6zy4OqLfirOPK9Io64wGyKbtuKt3J/ljFczcersoA04DhFzz8ti/IzHAxCerNzr+N2McDCJgicItiYb41zpqnM2RWHsnD43cFBdBCfwcsWGt0hk/zoQYWkCf83PgoO7/ZX9rf3V6r1BfcgcVOCygfHY8ulmYMTOF7gWME3EA7mNF5xOGcdLFBX3rYcmhZ+LQvVXtiJQOIV4vP7d6s3eHd8dDawcReAzVVuPmwAiYHDXNsNmcTmfvcRNKCwB0d7cdQGmkA9Ra33A53Xq1MvgzAOlKLkEsM9H5t8+cmJslCuOBe5lj8Dy7fi8WmuBKWqbYIwflAiAes7uGIVzchkjIyWCZmxvqhTnPkQoKV0sgVxyymCbs+VBe/tHt48j/4HzqAL+8QKitiHWK7pi9tBClzpes7yqBq9QdBu/ZXDuAj65GEfVt9nDQOZMrQMkAVsrSzsJKfgOs65yqMvry1/fPwnV+oXDfiYxHBMVYWrW0bCFFCuuC2rODlaZGxXBddzcX4OpGOiyQtTCDSsB7yJ0t1lmlFYQhQyCENbPFlQ1IAAhbMqHW29BHM/+C+msWv7xS6yiRNWVPSjVhukWNDeGCywIAS75jnLmQHR5UNybr2rCVV/QHBX1XqHgT1JrpaIq8KSxg4WPGQCRQrRB4c4yFvvkDUKWqU/FViQ8cpvv50Nyxji+SptNnImXxanRTlmPOAKty95OKotekHedVH0OW3rCK7VtKWo4/xkunbQwxxHJ1LacH7IwPmMQqGghYWMhr64tGSERm/+szh/0J6xey+OilYOhY0OAlRZu2QafMZl9/pFa2vKUcv6hB33sjLYaMNaHHc8UOBqL2SzGmgCFbhycVscFA9RBGlGbpLDIdvGwIQ8YhI4x16sfJXJqWJVVV2myXWGAR1DerhpsBCj1tJSyHbmk+FDuXoQevgxGS1sSnWCuYVdKGcWjgbjva2TwRerjWuyVsviEbhygi3QDqd7H2LZonWc+A21/BHY/jftm5fh2BdSKO1WqV81NM3Q4CKvdJX6+hUaWaESrj3mjtYDZmBgbHSmN+McMLYjRjFO590oao3/5XluPvDaMW4iFYuYTcBqrrnyPw65rdZqg+MPvoxcLog5wSUgJfJpoIfoCWGfdq7imR4gOdq1z9k7LKOxTu9GJf4bp/NQ41sDUwb7ZTuJ6u2HYXazPlz2PS8Abd9uoxqlDUfvIS8u5KrNcuUu4+Y3DJwnYxnj/WAwIxnMqcLnoPhoXXbZxhC2z/C0DfABeVz9irF99d7A/pNk8fAVrWAyyWTwM3EJVSPMZJd65XN5lR3a8YHT+qK/MRQ//cwHY4arInKFCRcqzm8WNSCdePT5/ZZEDnKisJMXfd7aQom/df4Z/91pLKEEZWu0WG7y/ubBnU/qVte2tw+399d69+/drPfW97cPD7dXqt17DpBQkusDXK3TZ/Y2G4VCFhLvl8gFloI8cOWC8MH/4Hor5oK5yrufSpRqwL1G4Ou4H87KlVq+G/mxH+2VlWutVX43iX0/ciPIMqpSb4akqSodBVMAHqDOXkj034PtS6x9KhX4o3lxlwl8WXW/eX3M5X71zjHdlZ2rJmBzB1y/0yDRy/qQoZVes2IUNDTsXMuC80KbKuKKwAfbr4fgD4vhSp2zK0iwoE6V4TJm3GJ+cqSfYu+6WHTG6I7JR9a+w0XDOclpGR4yr0JNXuSLH3+Gsg4khNkM6QrIXaxxcburxJV+B45BvYHHAAnssKtc96ZULAwajDVCAMao+iamQXivHlSJ4PNZAHI1fPlqa7k1aWOowiobasIXuL99EV2sH3EF+qW218atS3nrSDmxSEN41tsbWxnFjpt3is4kRxsxDinOFu6T6tUOa8BSllBXZCBhGprGmvPSS+keMka1ER1RoLA9V1JWN0nCwU+G7cPxkHnhoLAJhHanVO1Txi4PTo6/ji2fRq2u/9eAegCPwxVchIQr3DchhhttDy3LP4X8l1yeYz8PYaHYBlvDR1ZgGfgfcLB29yPWQqbhWtCukAkqriuXcz7Wb2L40WThLf/GknLt+vJUjQamWlS5GbwiVZlOGrtgYrtEVRYo1CHplDmk7tro1dbGBNTi+PxPoZrikbgSOBsZbLi0XcDKKcq7GKuFwA1KU91e2/OLDoRQfwtv2VN41wixwYBylN1pL1wwLUNrySILcrVwZGOzq1w72HqlQQ+TDDCQFLKwEKMRob7ZkM9rmlaAEE6SAQ5k24pyQxV2kEjGoEowSyd/fDkalYWNG0MehSuQbSZWiHnaEdcaCXU0hhgJDjnJTXM6bqfzcDNPDstUeI8LSOBE1l3L2odKZIkW06DOVphU1hl2lbwbh4VrWHHDW8j+V0WGP4hGRvf6XdDLiaxs2MUHkFNwO2WHLSVUyS6aSjvZVPoLt7qbeA/AQpoNCVcOadHlEteppzE89z3axot5rvbVp4AVvVBoJ4oqjiyQeQ4U8SUyDZPXOxW0BFxvOEuWiu6JFTWspXG1v76+vn/FGuitwOz1gX0GxgKmZlRYc3v94GBlx2DSyDSwGyS0y9BzC4UQkmSFGXWubDMKXmxtm2VJZ+2j3pumAhNqbKw0bBvZA6taSBNrhisv+lRS8S4fUVu1HKqk259q4HbfLDQxB6jEBg7or9M2VYzt1bJKe8ZVpReGhjQF48YNoWatAg3YpQnZdlXGOn5wxTSKSGHTpATX3STJASa5eyClF+9uMwxs2Nghw1qXIj28XOsjYOk7FXJmbRefASPd/gX7Zuft6k/QmrWXub8ix/MdEA3WC8jIymDsFwMUprjX0DTFYEyZ0YV/XyvtdZb4jQGWNSVLrTcbGa2wlK1c9m80eR2bEsgqk4L1kF6KBjmz3BViRzPItUh4wlUIk+QJhnwVSq4oHeJRv2DAnGhR4srxvp5//boXWK6L+3HArCDPYaQ8j/LYkfWPFQiaujiZAFee0/6O4U2eookxR0YsNJApWSsyAlcgs89UeWZHRnIMzOiBFNDDsD93YqhD4M0aV/iyQ7Kiyi49g3eXdC8lVxT5NLb/SzZ4zHLlRQQckVAwd60XAszOVl5ZIICDfHuvhvHSXvVplOKvlpWZQeYK06RpQYRO1g0rWlrSMuFmb95DqtKSGh10uU6lgCuu3KqKeqEm5RjYktoJMTlKG6Ov+qhWtIQrsLdG59dsXJ/jCpRBENBNiyCewMf2SuCBUDEPPvhePvDceIQ7eEobLnEVn+Fg48b0LxI3hD8bzTqe/QrLYpf0ro7YBX7AlLJdMivQZRibbznRTkUW5H2KaMgMttYxgGMhwApTrjLGD4TKo2DOB3Hm5uC9PlCfBy7uXqJWjKmsgrGBF8ZvgCr9zApQULgQ99W5VgdYlsyGUlojJZC7MqAX52ngiXjVWA8ZNjAUXd4pEdcoRlFQq6KYhdi1ft0uXGHS/bLw/loBm0G/YBR/HdslWcW2Q98MAWZjfXw57VYpZ3FAxfVfNgjjY9yG4uTjF3fi6do0wBcoDHdJJ91WXKqqIw+kCHrgXo0k5d9Gn2oe4qqfqE3p2cjVNivIaJ+V5VBH/wX7Fma5Coo4/S5C1G771odvpWRcJHRe+oj9WMcHuaXU/hk5OClHh5x/L1RTCVlURsNqqWabNxmoN8GFiKtGT+mSOvqBm4IxFUiFHWAvkbhKbA8/dbdCUiG8kFU7JsJfyxVkOt+PLMuKP3w9GnAluVRCt8VxRA2O+C0HxeBCPHOi5dqdNyOyZJ2Cvd0Lyvthc9760K7IheCZOvBJrZVG786bUQKAnFrFN0KqsLVOpww/zZB8sNG7kBX3LwlZs1w5463Vd6urx0cng5qi6teFARQ9oxa2zTz/vCa+YYFDN8HQy+dvXJ+24IxwEx2FuLqa/0TkaruCHlTZQZMp4FLDux2tPqOSBqucHclV8kbY4L9E6Qsf0lU7kD/AD0Otqy6k+fkTTLnC4N5eLulQHgtaD067k44xbhD42s47gReNS/ZX6qQF8Ugot7lSp6vAMUVdZjJQDLftitcb1ElAP12XXP3Arg4YFYhXJvZdKVztJKc8FR0GGmZVcgUh69HF6Kxub1PtTI9S9ZEYFg5rxNsJsWmdlXBPhZNv/yW/NoJGrf2ZrvC+jC1hkyudMFPIZrKV3u129wpboiDTo3GMJuOVnHQkJ0UFdaFgZKjpIj1u2knkU2s0SJyusWyBSqu76WHBmHKVT2YTP1J18JAYtCBJ5h3raNRy8Z69yRvJJKyqv8tmelFrzECuwL9QFWELAGTRrHsIpWdoaAkVCGloIZjJwGZmjtGxWb3PQMdS06V3J/6vEdlZKfw7UJ6D2Hr8kHXDVfFerrCxj/fmQU3of/kD5/l5B5s19PrqDqvIc5bYTvL7hVKFWg25ajS7c3aF8/yCXDsHn03az/0Zh+Zc1CHVLYFdYV/vQNaG7KYIukDJAFyRGulmKXjdjKAfCw+yK5zansXYd/dPT30UV+2vNepcAVPspgpWyE7IrhpVCjjAlWHIQDOlq9uhpWfIrFCeG1Rwb3bxTpok8de3+0qzAZqfZPsaiXQtm8Q0jsFeciU/dl2qiwzbfVzdMMNV8T6uVNxZVPreBtXg/GvDC9AX32CXzzxkFWyAa6FRlVbR38QYBS64K5UpcJXJGmwXa2e5kPVNJvdohVVFjvelQmo0q1iCE6PVTlZRL5eWlsCuehjeqCJqJlFRoGSQXCWWJvv9P1S0i+cq/ilXim6riv3Cx2lEse2BWbmtAY3odypYG0O50tAuet1uf7sSajJG9aW8Iq60S3ZJ2yLrvfUOCymYG+BcdL/DdCBjNCr7fXSi7gHYalPphrjjhvpX+2hXRmN3apkqN0iuZ6d7S6BGlw1mdncsuXCuZB6kufM9B3Gc3eTxW0iwA+F/NWnzB7gZVMfZJUxD7BJ+IAprhSWDHcIbkbaWQwl8utnpNBlrFDC7UfP3pvOFRSROgdhmZ/cqZEwDJQupDmXTZp2bnQrEN3zP6el0Q42ebE4D1DoqUmwpInu09efJuCLU9tp5qgrlKAwHq0LpVOTYAenQpjOIQuWqDu9L7bjpUAKUUqMBBQlFdS0zkw3UHTZtGBhhCMdoVHqv0aPYbgHLKxSmXT8CFE/IVWN3ugjsxxuksuihJ+fK/mZBxUhUuWPcLYdnlFS12SU5m5D/qGz24G3UzWuuMnLORT9ymDUzdFW7VwlZBg0PaeSwkhQAaKDdBliRVoCkN6UAdAlydW1pOPqmEtxIGH1irjh+GYJDXEE2rIlkC9tFQhbNqiQz7IpcQ1bF2bCCXGGLKvnJZpg2r4RARGA3lVqocjwIceeQBoZAKq+iFWmZOckgRdkM433ZPkxC1pNzVT71SVo4TvxWsXVV7gPZZyENfclgskYWxFY9OXtZH++wRoZGrUQVRqXDW21SRd1n05qbCAtZFfvMENFRQa0z/K3Aetctou1k4LU+o9vkEKxghNm75dKCcMNV8edcCZNGXUhVe1xSdZX2zMCLVzRga4lOXoO43OnTHh9lGnB2zfUrxjAKoU6A3w5RG9yqIhXQ/ozCGRxTYWyn3pXTRDSmfflb41ppmp1kF31v5m1wH5NE57G+Q43bsOhcy7cAk43B/ebLVTF47WKXz4vOTdo7lKy0ezE9zUoTd7ck6pu8k7KX2d/v0C4Zo7mzfp+2rl50NpGfbHN3BSyjviIB6+5f0G9r12W6uSafu5gjpZe8YuXi7g6bxYAM5POLY8SXNxCG7uMKpGf5n1YAqdCLc7efrB6sr62tH8ydJBU71/KwW+33+/+Ld8hj7reKnzYSfsE9lbg7VtimyXVdt8sqv3eHMwTzwQf6Min/dem+g2ZBcsKgnTP/99JDvef3nx75WLSp+DUP1ze0qPr9m7rKIhfR3XvR1t0nsekwr2rqRkhcYfb629yejTtEp1DuH9+qkAcj2g9y1wV/hC6JiQxDl/qbcIXTNjPZUayr/Cf2y89iajS7r0s/qq9vOnUSPeJKC/9GXNHWl2nb6PaiUH2bYG66qdj24JNbxC6ftao/JP4cMAOK38bVc7mFFktmk5fxGzvtz3sRNgQ9Jz4RD7nF5QK0YaYw7ZE/A+BYwv7vL6/OjrbGkethiYP1zUN8apvRNthHb4L/PgD1xVcnoFN92WRw2q3RrRvX78HhJm2v/jU7DX4DcFLnq0FAWsEB1e60vuDOvv/1lWrybQDP51s3uI7i9F3kyak0UBafD/GbNp76xH5HgKLQxTvfoZu+QLRbe0P72X2PxgOB82f+Tt4O5OWjyerQXtxt6X8zqHg36otWLHF+VrMXeFv63w4gGgYjic81zv8+Gnzh4NxUpZrCe5vx6xUV5Vllt38H3FbN5DviOVQ7itxEk3L1I+COFT67fyVFihQpUqRIkSJFihQpUqRIkSJFihQpUqRIkSJFihQpUqRIkSJFihQpUqRIkSJFihQpUqRIkSJFihQpUqRIkeL/Ff4H/BZHPodcHtYAAAAASUVORK5CYII=;" vertex="1" parent="1">
          <mxGeometry x="359.5" y="526" width="99" height="55.63" as="geometry" />
        </mxCell>
        <mxCell id="fcOKzoYQkx1dZIKBnOqn-10" value="" style="shape=image;verticalLabelPosition=bottom;labelBackgroundColor=default;verticalAlign=top;aspect=fixed;imageAspect=0;image=data:image/png,iVBORw0KGgoAAAANSUhEUgAAASwAAACoCAMAAABt9SM9AAAAyVBMVEX/////00I2c6VkZGQ5cqJfX19aWlo6cqFXV1dTU1P/0TeHh4f/0CwaZ57/5qPp6emzs7P/+/CdnZ3/67f/11zJycnL1+P29vb/23FnZ2d7mbZrkbW0xthsbGwaZZz/4Ih9fX3c4+uqqqri4uK7u7vQ0ND/2WX/9NqNjY3w8PCXl5fCwsL/1En/+Oj/7sP/zyJbh7D/8tD/3n7/9uH/45b/6Ky7ytqXsMlGe6leibGKpsLR2+eiuM4qaZtNf6q2xtgAWpT/5JxISEiuetEyAAAKHklEQVR4nO2d+0ObOhTHwQIFpKWiFbW2Vlq0D7XqNl9Xtrv9/3/UTcK7JRC69MaGfP1hpaRpzsdzDnk6SRLaX7n2daQ566Z8YV2/vF787Iw6qUadt8Hrr2vWDftqml8OAJzgYFMBYDa4FE6W6OVxVMQpQ2z0+MK6kV9Dp0qnlFSozoHAJUkXIwJUCNfAZd1W1norD8B8NNqsW8tWjzVYAedqdKL/jNJVRxm8kYTjG+sGs1TE6g32pebv1V4WvLJuMTudhrCU6PK9EpbSYdpepvpEvtQ5jS7nFZGoHChBczsQlyGs5PqtyrGU4INhc9nqMgzD5HpQgUpRDgYMm8tWIaxRcq0IWHiFsDq/osvrsnGPoghYiFbU1yxPWQJWyCG4BBen1agELERrVDybtc5KwCJQCErAImYVSsAiZyU8i5xVo2Fl13JyKkbV6DC0TzH65x1Dq8GehdcgQ+pAeFa5Bhte1RaehdOgKAbbkWd1r2J9Pz5i3dLd6fTjEZfSCxJ80hXNuBaEdWamWt3csjZqJ3JfK8Y0ZX2GbM46k7OynlkbtgO91CNViCrMWXlYsilzF4sXpOPAIljtMlgAF2e0BjVZ5R2qnfxbCEu+Y20eVX3UZbX5HMTlLORaV6wNpKjTujGYTmC1c6wwsOQVR8/Ev4nBdgYVLgxl+YS1idT0SuE5CEm18bCsJ9ZGUpJLugWrDFYbwWrjYJlnrK2kpE8qjgUDEu9Z8oqT7sNWfrXODPlVW7mQMLDMY9ZmUlHp2mm5X7XXULXRnqNiWHzEYZ0ozDtVO8sNCe2iOSmCJVus7aSix239KocqpDWCi9dWMaxvrA2lIfJnITa1R2HYbr+D+u6LYXGRtMhTFia1xyEIoxDue3swi2F9Z20pBb2QpqyEzXqST1i1H2GFz8WwZB4yPGl+x8dgQitA222Ko5CPqYePrWBF4+d2mttBdkcHxH5gHIuLx2H53sdKx0rzVTs8TIdzLC5gEfUcCrJ6PmMFo2gL/BnOsWSLgwFP1RbkTWzR0ir4OYD/BkEw+vkZnXLqYh1Ltu7ZGkpDlbA6o+DxokQfn6fJmZ0SVrLFwQRgRX4fvf8iP750VsKKf1idR/Ij0EddC5uveIFV6laXmYJHeN3fPnRvVqWo+IBVkrNG8amdb90z0ypXBSmZj5H0T3wMRqcFHu4ss5pFNSwOnob4g3EX6P79SVnWrgOLg37WBTYIUdfpYUUHlSyvWFtKQbh1sPBUKj1WsszaUgrCzTqM4Fn6e4qsblhbSkG4pfuf8OYNhcQeiYv9DpiZUhSFt5RyO4L1g7WlNFQ8B49miK/oORYXfVLcHE0HjnMosuJiOgvzOFQ6LnadZitxssj6T0HSUhR4MvqJJiweVsKkot1ZSgjrmGIY8tAlhdpYslDowzJ52eB9PdpkRRvWioMph1DvO4fFjWOtuVa0bEMXFg8zDrEugnVWdGFZD6wtpKlgnRVVWBYPe0JSxYGo7AKWxcMQOqvTUZ5VG/4hKDqwVlyMoHO6DoIDJV5spudZpnXCTachq4tRQByGJpms1TMvhwXWZb8qo04A/4hyJwj+lUpgmV0iHXMxK4OVe51IKoHFx3QLXQlYNSRg1RA+wZ/gxM8YsK7qdx04mQ/dRlv0swQsAYtAAlYNEcIyMxuSBKxyWc/d73dxSR42NGwnEljmDZoEPbYErGpY8Ymc6BQKP3+SoK4IYJnJhLHccFjYM0up0pWIcBNJc2EReJaAFYtge1a6keik4WFIsOUoGQxGYJvbz5J+E8RhF5U8ith1GbeYpQj6DtbNw7en31HA8vJHVLbSE8luZTM5jGL9Zt1gpjqus7fbbG7/PdQTwRGmOCAbnN0jHd2QbZY0Lf5WnrfQ00m1d5mrqybn9qxur8wSXqZp3f0QqDK6/XEGj2BmJ/rQAr21urt6EKQ2dXR73P3+fHYTrnqdPV/9Pn7ictuHkJCQkJAQgSZOo//L6DpyVN0QsAiltVq6gEUoVcAil4BVQwJWleaT5CVVWBNv7C2nniSNbVpVMpa7HP/pJ1eUPWshSb1DyW1Nqovuhca6qu0UVm8+7fEC61Bt7RSWZ0+9pYBFoBmAJR32pwIWgUBVLvxx6VXJVDuFxZsaDcv1p57j9fp5z5/3cOWxsFy7oHc0mXoLp+djvhdz64vK7Q0NTVOBNMNJcU3HhpottvxjGGP4wvljADwtzTCMP6h4BMudjnUgY9yXcp9r6VHli7z7zb30exf7kaBcB5iuatBMYLSqxZ5hg7fPswX7Wks9hC8cWBAUBUphue7CQIaDG/phpvqhDt/RAbCWaizTG/OFASjphqFrsDJ9H559E2C5pju+7bp2DzZbi37HNjCyGJbv9YbAvEXP87wYlurpqqqfL5wZJKkltOaAnqr2JnN7OQa1G158owdQGQsf+Np8eQ7hG1/ftyYGMHQaX7nwdzwOX+NhSQU5qwVNR07pjqGjxTdboOAiej0F3xX71hBWlkTlDOKeUTRrNwLOpDrpJWQXGVoTlj5OTIcxOgxfLtQshCn0rbAY/J5M3UPoWjTs2anWYKHfcWhoPVjaNFewZSAvm6wxAU4XVQFvZOLOh5OtX36WYR0WajXKtfVg5fpZ4JMa6g0A9KqXuTHRY4xrsFx9H2FBK0L7/gLWGMBaRpXln3JqXPsaLHS9f7Dgcw4h+QtY8V3opvlMBHPYGL7gAxZMWijNUIAFuyK5KsIUD1/wActRoy4PBViOmnRE0jrConzA8mLLKcCaqeknQiXPD45gwWYLWBvaKazNMPT5CkOHYhhC8PkEv+QrwcOnITKHAqz+RtehF+PjA9YwHthRgGVvdEphFkNfxwUsF/bg0RsQlpYtWh8WJK/lZlthykIDIS5gLRNzIKycPVvAgn3QYeYGHBuGs69cwIJRGAWfkZ9LyMGakcFKPSn92DSufD9hjdNWe1o6cTdW8wYsMr0mLzedgIe1BK7USt739ZYaOdq+wmqpuhe129NbKRA4GRVNtQBN0ex6ci+JJyg8LOkw88vw9WTub49hqaox9pZLR4UXaY6B6Fr6ENzpzXRgdAYWmsYbxiBLYElj8EGtN7Ftfwb8yoifjfsKS104BlyO0sLZ4czNKVryAnc0VdVVJzd4GcOHpaHHCxYGDpaEFo/Q6o6qDxMextoKxd7AciTb0XSARDOGy9xde2bA93Vj6PlwNlNdpPeWQ0PXw6Ww8+FQzcKanQ9bafqfLPSw8ux6ogo+koUFr/cEFtCkP536RavJvj8J357nYYE+2WRCuNg38Zd9/+svdVVpowePF+h4kRblVDVggSeght380AjVgOVr2Y5oE1UDVk9t7cWGhN2pBizQtdKrS/Esclj++sOweSKGZavxYnJzRQqrB8d10+pyXIsElt1fwKFh41lVw+qfG2jTns7NUZrt5Q91vRTWBG1m1BfN7jTEsr3yMBweOtycdRASEvq/9R9YYveVSwMKYAAAAABJRU5ErkJggg==;" vertex="1" parent="1">
          <mxGeometry x="534" y="539.6" width="80" height="44.8" as="geometry" />
        </mxCell>
        <mxCell id="fcOKzoYQkx1dZIKBnOqn-14" style="edgeStyle=orthogonalEdgeStyle;rounded=0;orthogonalLoop=1;jettySize=auto;html=1;exitX=0.5;exitY=0;exitDx=0;exitDy=0;entryX=0.25;entryY=1;entryDx=0;entryDy=0;" edge="1" parent="1" source="fcOKzoYQkx1dZIKBnOqn-11">
          <mxGeometry relative="1" as="geometry">
            <mxPoint x="226.5" y="662.5999999999999" as="sourcePoint" />
            <mxPoint x="301.5" y="596" as="targetPoint" />
          </mxGeometry>
        </mxCell>
        <mxCell id="fcOKzoYQkx1dZIKBnOqn-12" value="" style="shape=image;verticalLabelPosition=bottom;labelBackgroundColor=default;verticalAlign=top;aspect=fixed;imageAspect=0;image=data:image/png,iVBORw0KGgoAAAANSUhEUgAAASwAAACoCAMAAABt9SM9AAAAsVBMVEX///8xYZMAAABzjq8tXpE0NDQgV43b4+sASYYJT4kZVIslWo5iY2QUUoooW48hWI2zwdL3+fusvM+mp6jn6OmUlZaSp8Dt8fWKioqfoKDh5+6ztLVAa5nz9PSKobx7fHyesMbEz9w9PT3AwMGRkpJxcnIrLCze3t/IycrU1dVZWlojIyNDQ0MNDQ3S2+VJcZ0aGhpfgKa9ythbXFx7lbRpiKyCg4NNTk4AQYJTeaJ3kbGi+QpZAAAK00lEQVR4nO2ca2OiOhCGxwgoKCqINxS8V/GuxVr7/3/YmYS7bbfb3dOyu87zYSsRJbxOJjOTsAAEQRAEQRAEQRAEQRAEQRAEQRAEQRAEQRAEQRAEQRAEQRAEQRAEQRAEQRAE8TdiLRYLK+9O/CE4C89bWEaqxVpO+/3lApu82YqFHKrNO1fMaVYjMbar7pSrsZxHLUwO/qxlWd6KV5t+3h3OD2MoJHhYVaubQ/Cyu+F/LsNu96mKWq2anhOeu+hzXQ/LfLucG0u8+cd+PLas6Uwo1VpkzjLs3Xi8s8Uw7aN+82/u5Z9BHw2HK9UZN8zGeNfhbU5z7vCWkeu75o4LtCs8q5quq/reLeFhE43LybXbuYB21UJd2gVVVxRFU9X6sS3kGV9VvV6pVBRd3Y9QwpNUKyBSRd2f8AMbdrg/Ry+0MtW6VIiQ6s8NMI56qkXRfQOblPBQv6J4F7Y1Pv76f4oW2wC4aiGNNoLOoJJpKtQrDTxPC49qtR3AhlXz7v03w5gHp6xW0h5gUCvcIKkuqqXHRztwGFt8fIF/iD67gFGTMrJoJXCVW614+xHAj96QlA7MWS/v/n8rc9aEUVaZ2gvs1NdSIUoRYB8JW3lBpe8rfljjSNpnDUvfwfnVIAxty4VObFoFWLBV3v3/TtDtgHHjsQbQeduwEHUMZuTk64aDY/iOsJgMOz2jR70N5lseKzInGISGqKBYj3nfwHeywNs9ZaXRxnCW3tApVMiNxa2gXd6Vz1pgqHRjR4ph1N/VCrXshD4Ojczi8ez9sEDbGGW0QZeFc6FUU+qVV/Yl1TW93A5nT+mKmdJdlWqEZWXEqhWhoeoDf2S6Ay2rlTIY7Wy7BLYYhzUfQ4e7CkotFKuRGYbo39vFUvDuKOP6tXb4oY4QsW7CkN1VcuhgZjjOSKKMABWwTbc4MsBNGV3tDNC+DnhkIT6g2yBv8u7/97JmYGeiKsUE2F111W+411CW0LAwVsX3joVwGPLJsPs1nbJPbb/ojnbppoZ7Pvtxk2F3vubSP6TKHNBvxGqrEpcG2uN0KF+BTtm3R5ggjrXA0JbsS2rLu4Faru33Bfx3FDaN92q5jk3lshQ0lZ7PX3HpD2jhDWfSnfoIfFRIqpmm3k7NlBgp2GpNV9Cvi1gDRe2yr6iVllS1LczGMAtqUTT5qt4WbrSDTYOOOKn4BZf+iCXrgZsuXaGDD46VOhrPOJkQ62DogZjifb0DcpTsPG4miCzLj83f79Fea0QvOwX9hH+K6jUZdK5a6OQlFg/CM1Epnw1D8dCXlxJ/ppVEooMW9VITNS8rjrJk1hJ0L7+fLBq6lByY+pFXca/pE3zelo9YIG/B1t4Wq6CkU2o0qTYOSqUBxZrQrBWPQplF39b8UUzf/Zl439b3qYOyAkZFszNnXNVTXmI9MQsK0tti6UbK+WPEzu0MVeI+Dd86xFl0IhbI8vuXevyZTBIn4OTAOJ2gob9kzxirx7zEmuJgekmVr5RR4sMwD0zNlKrICusi3am9gMem0XekxJqzN68iqA5/pkMieElx1HevzjByEstiw4zTCn3Sa8vi47Ch8XQIT8cbGKbMKXlZ5S+dfmvWDDOhRb/VbfIQw7FWc4s3Lpqz1tSAhQXOgp/KPZ/X7DW94AOmqru7VGZQU27ThKNaykks4bRSYak2hmM0KuuZMqBUM3DASjzOQtfvsFnyFYlYhwsPR+ThcMUeuUursuqsN2QTC1rbw2G9tZxHthkOJ8xad9Gqp2y9GYL3sB22hmwdyIXhgVq5tk+BpzJUCW7w1XFeYnWzTksvxdU9nPEyhUFhWqJRO0EvFWTFYhlzDNt6wSxpyROIUm1nzRfNxDDcbIUkS/lhhmLJPNawgrIYfjhYtTVO7l4pq+rAxQGIP9dtj938xOJ1Fj9xWhghRNJV3JtaV92AfQ3jCX0AkK77yduLYMLwu5xoyYeHFk8PwesWl7M65y4yjPr7jIv1xF9Wo0lhkxRejVLDH6gYYL1hWTmKBawKpyR4wDznGoql7pIRGYjVxqkILatsZqsz8rYbwHeX9GOTq1bRykJtxJBEsYaT+LJcLG5lThyvTW9Sgt1VGUC9cuuzzuouN7GG2MXEgMJwKhiF9s3KBU6P1zOcKnir6XUdOT0FzuKD1prPjuzy1FyK++ViVWODFMOQj7sFm4daz1/Vx3AmeT0bDvS8ZkP+e05TwUMYTnFlGpFsiZI+7DB3bGDwmb6trFjb6FXvAGIDU3XNGPdNQqx4xf+QiNXtRVhQxBkmwdcxRXWz/S2hcecmFh+HqZoW/pBtMSrRfm72O4iM0IAzGNmVioxYzfhgmOQ+XT7guFjdyD85LBLLyRQvXH2UOmrrI0PTsuUYXzVzFGvODEhMCE0LjpooG5+0W7EqPkBjJ2bQFHK6YrqIg9VDCzZhfCHySD4bxqHsLBYLNpHyczTFBk/9Yoo6mreaKceM1UFuuSEE82Gq8qCg2Y80rZx4+rRpncDGWxcTnuOFYzEjFlS3gSXM0RfOt9ElvHAIzlkfvbgzk+VYLC/08GL9w1C0UfxVtoJpAyaD5+T78QfMreogWE8yrryMXqPTaGOIo73eS1O2xV6j+XzF9+IGqfE6I5ZxYa3lsrnho8vaPjQ9b9kTq7E9Nmw5aFJMltnKScTieyam3rIbFF4buuqG425cUEf871UdnIIr2L5a500l/WyXEr5DpIge/u5JTVQ3wQnHSul447WkAgpptKqrarfpWX0W3G3zpozVr04mq54IA4xmdTO5zIPv6z8NeeNiyXfzrltg9cJQwZpd5MlTmO+MMb4anF+Kx1q5EqaJo0JZOb7450FZvRb0NnasrJUTnr9Wniy8qBVvnNF8vqlPHuL9dZK1+ujNHXRSs9WFfXanpDWLPvGDNcexe9wPBnvfjD270fD3g8Lg6I6hVEAf1jEbaT7Zid9jiDd9DExL8XlChzjgP5s362SYE9o8DTFN0z3z3WyfrvXFKWXv0zpHGFf345O+EJ6dlYKl0z0vcTE2t9B5SIV0qbQgVikaaq2uq2Ud/Yqz+YUVixnrWY6zaP3GPri8Fyu7eNumyk3HgN5ElFcaGt+OdSNWEWzX57u98YTl9peWwqaPODMc5t7/fAffiMPWPEHVpA5MedTTOZ01ST/DjVj1ZAAsH9mv7r81HCdv4/g9pjzZK+EE7WEis6s/8woJ95u72xXYfqvf7z1duFf7H5Zy/lKG7MLn8al4zsQojce89ja7EQvztkn48NOqeYcPWMTgFHiZrxkvEwRRkdE8sBuxdBvYcOF53j0LJWjyp8E86G/EA2KrB8a2h1vL6jh3tpv7fcLnVB2vN9xMqk0cclkHL0mplVUiyyuxBl+1GeQf4HKzHwlj0v4vB97/OisW7sUKqbgYgN+9b3+HOTPS29l4mDXffvyx+2TIHCNdLMUwazP5+GP3yQyj+XSJhodZd/WYwGdo3mwLVIDCrHfhO2yKSWVZPCZAkcM7eOwp/TCiZooFWeJNeOEm2UcjFcBgd7bz/TM8MA/aQfAgKTUbWpTsvE+XV7lcVVE0vWDyhb2HvHv0B+MwvinIbphiZ1mPUa7zIzzGNkG1fNE93ON/EfIplgfGHh6rF77IQCHWh/RFvf3S+ouXY74Tw6HgiiAIgiAIgiAIgiAIgiAIgiAIgiAIgiAIgiAIgiAIgiAIgiAIgiAIgiAIgiB+kv8A/2LV37CDSqkAAAAASUVORK5CYII=;" vertex="1" parent="1">
          <mxGeometry x="514" y="643.4" width="110" height="61.6" as="geometry" />
        </mxCell>
        <mxCell id="fcOKzoYQkx1dZIKBnOqn-17" style="edgeStyle=orthogonalEdgeStyle;rounded=0;orthogonalLoop=1;jettySize=auto;html=1;exitX=0.75;exitY=0;exitDx=0;exitDy=0;entryX=1;entryY=0.3333333333333333;entryDx=0;entryDy=0;entryPerimeter=0;" edge="1" parent="1" source="fcOKzoYQkx1dZIKBnOqn-2" target="fcOKzoYQkx1dZIKBnOqn-1">
          <mxGeometry relative="1" as="geometry" />
        </mxCell>
        <mxCell id="fcOKzoYQkx1dZIKBnOqn-18" value="response" style="edgeLabel;html=1;align=center;verticalAlign=middle;resizable=0;points=[];labelBackgroundColor=#fd883a;" vertex="1" connectable="0" parent="fcOKzoYQkx1dZIKBnOqn-17">
          <mxGeometry x="-0.4008" y="2" relative="1" as="geometry">
            <mxPoint as="offset" />
          </mxGeometry>
        </mxCell>
        <mxCell id="fcOKzoYQkx1dZIKBnOqn-11" value="" style="shape=image;verticalLabelPosition=bottom;labelBackgroundColor=default;verticalAlign=top;aspect=fixed;imageAspect=0;image=data:image/png,iVBORw0KGgoAAAANSUhEUgAAAOEAAADhCAMAAAAJbSJIAAAA4VBMVEUAAADs6uz///+Y23x3zH3b2Nvh3uGb4H960YB4d3jz8PNkkFHp5+mW2nxkZGQsKyzX1NeEg4RxcHG5uLkyVTVfiU6R0XYOFQz29PYfHx9woVuFwG1eoWNnsGxxwXcKEQs8aD95rmNKaz1Fdkmdm52pp6laWlqDvWtYllwZKxrMysw6ZD03Ty1BXjUTGw9qmVeZ1J3E38ZVekVOhlImNx8ZGRlIR0hHZzp1qWAuQyZ91oM7VTA5OTkpPCI4US5ZgEhPTk+Pjo+vrq80MzRzoXaEt4hUj1gYIhNygXO91r5krGqM6pGmAAAKmUlEQVR4nO2dbVviOBSGQaSFKiqi1QEHpjjIwIDsOviCo4Mvu+vu/P8ftLRJ2iRN2qaUpuHK82XGHmhzc06TkzRJSzvpVB5c3ZZyU++p3jpPWdJSqm+d1/Oj81Xfz4/QOJQAuNIgL8J9OXwrHeREKMmDrq5yIfwqDzCNF1MQojr0vb5SMxfdrYEoTjiGlxoYrspWDjrHw0Y0UMUJX8GFXo2qq/1yDrKIG0PQi+KEx+A646osQkFEccID7yqHR/IIxQJVKcKXNIhKEY79ZFEgUJUibBnH4oiKEQaIiQNVLcJqVRxRNcKqcKAqRyiMqB6haKAqSCjoRRUJxRCVJBQKVDUJRRAVJRQIVFUJkyMqS5g4UNUlTIqoMGHCQFWZMJkXlSZMhKg2YZJAVZwwAaLqhPGBqjxhLKL6hHGBugWEMYjbQBgdqFtBGOnF7SCMQtwSwohA3RZCPuLWEHIDVS1CIwWiGoQtUPJmJCEnUJUgLKPZES0jWv7zxWPVCK13WPJmK1r+tJRggpgihOKzlMpqEZatT6KETcUI/TsxudB8VFUIUXWaXC3FCMvWkeCUyLpqhCvGwZMI4aF6hGXLOmq9DWL1BpsMBQkBZfxMxrrShAlkaUJNqAmlSxNqQk2YqFHOQrIIrfL4a/1486q/toxzGYTWAI03bF6fmvtMR26S0KoKZf/ra8xC3CThUY7LSoHeGIibJBQeTFlf4zwJpSydPQw7cXOER/5lz1jqAVuPaWQq6mz+tQYhxI0RWnBRW2nZsVmaAWubaWSpAzDuG0xrG0LehdqMzRG+gBPPzApLZhuYHbaZ8QUbMPQ55+vAH9TIjdAA9cycQ4AIH5ISVuxeFGHFvAEnbOVHWIouUOaED5CQvhG3h9DRhJpQE2pCTagJNaE0whuTI5iCODx7SH5eypEswsXeKVv30Mccc1jLXvQJ+5IIc5cm1ISaUBNuIeHJZ45+APusk1RD0FpMefaZJMIvj7tM1b4Be1YjUfJymi+1aEL1szZNqAk1oSbUhJpQE2rCrSB8rDH16Oelqo9EnXzj6BLYl+2kmgEfTh449qUkwtylCTWhJtSEW0h4csERbC1+8OwhfQOtxU+Ho1NJhLwWH+U0FxxzWF2U0xSsxY/L2i449rC6Rc3a1CcEy/rfqyFCMEH4kkd4Aa77u/iEYM1x3aAJLYD+mVtir8BnSfkkEnpv8LiqhnxYNl7cqpLrotrvVYnPPid2oUTCnXIr2IKDmOc9/qsbAVDbvbjYTQ4ok3DnvFplElp/RAPUBPjkElocwvIfIgSaUBNqwnUIsZqGPHdMTZOSMOO8dD9mGx9XR8GWN2NCf/MecSdR95Gsa7voKfeQqXRPud9yXntG6TuR0kHCOIkQtiSszKJ0gqUM2RO+Rp8pH2FpXeaEUl8Yh6m7KULxbYo2pHltQ4Ry6xhc/9Q2Qohc2Lv8sdKeDE1hEZ5JHy54nxecQdsERxe73iBQ4udDmQrOk0ad6IxbfLjNFLzN2XnSpmXCp0nfaiQh59OChODgSU0q4RCU4nKDhF+kElY6mhCXJtSEUqQJCWlCTShFsglXqWDF3ZHC/ZfzAdfeCNlNc3WQ8Wmb/qBcQrPh3EzmH72z0WI66zAgzc7ez/l173o+WQ4Jszlc9EZ79BdMZ/HxTE1yYxLe83YGaWdKaNo3wYYpKy0eKEaz8xMzr4ACs+0dojYEgTkoufqCSRinTAhXfKETz4nCmTPa3kZm1GOgCEFvcFEMQtO5Zp16GZQOUeCa2NAGfx1qsQw4eF0IQnOPc26/zGgVM6kP0r1EjYF6u/dFIGT5hypzg22Htx64D0s9RpBS82nlEOIe7C2m/fvJCP15Y9K/wXzanz6XKDuiwcMU/SYNIlqkEKJ+90qLtu2NjzSG8M4aIkLI/Dz07J1TeNvCygbFMBaR7CBlE84vvzB1eZINYcOvZIL2YdVWT0tYbQkLNkLNutnwfgJ/PyU4YfvajglSNiF3WvXvTAhRRVh6JrMS0w5adeRmrFE3h9PFaQSPfU0z8wm/x0zQWZPQRhFK3jCEUPrUxn4DE0/dUExOTd4BeYSoDjmzI9YQIB/S5cUEfyfkMvOeGaRSfPgRdk9Y8D4r9UOpNCLqk6dh16QyCJF3eHuwoY/5Kekvh9GJCOJ4AitXTpDKIISTVDnb6PkAQYtSGi2Z/Q4iTHlBKoNwihcsAhE9VAGeovsdQZUMfirEGzqPBEJwG37EL1UKEhlPp1SwIi97XQlOcy+HEBz9GU/YwHuHrqi6qTEHhzuViCCVR8gbRyC89LAgEfukGYapmxXA5r4Xjn1phBENHcZgDvsE4i9yJAOGaVCxMs4qRggn/yfd+5JNCHPfZEsGVzn53hxDJO4z0w9TfpAKEda68DLVtQgn4HDiRZGuI4PxHLy7hBqepQmD9IxRQQsQdi9gMvKUdA9aNiF7ACKa0Z6h7ggxCIM6IChIWdUXk/BsxJLf5fmadB9hNiEv+YiGrMA49GpO/yjsRHb63CBN0wO+pfkE81LUtRgKIfoZAJ4LobECNCrJ+h4ifMTXzEQrVJOK9i2gNxYMiiBxMelRblRz3uCHbaJkzLCAhP/+6em/BIThGBUlRBnnDVWgVbXZn6H/O5N5n+xeQRpyeG2CF43ZW4GETVBsK34SE2vTedE+/i8moul1mJ693g+4Wa9xRHT/LglCYtCY2aMmCWPfl3dsiLwbgUeIds0uTTEEswOqslPvEGjpzpxgWMOGtYrDciw4G/PGpgito/oVTwf1N8H3W3AI/XZshXBqw8lIjT28nP5g6f0Q2juwdafyMj8eSrwuNUW4Kuw5V/yXlAiPl2K3z2Sv7TzM+n4N0Md86Gq+dO0+CNV5wEbGGTkpkzCVxEf1qZQaU8frDDk8M40RhCmngZVF2JiU2KJGfGmFRgaC0Q7OuI8swkol/GzNlZ+VsL24DFH4kw95gwY5ElJ1uemM6PKXRh2sbrWnIXvooW8lGL7gdanlEa5SzRnJ+LFXIRvI4S/CvuiwIFDFzDTmS1gLF67i9FGleT1thwYN3Qcy6H796A95A6duvPe4o685EoacWAEzLTpO+8FxZ1swi2/attNuc+3eZ+w2e0g1d0LejJpQki1o934ornIlDMdpDsqVUApivoTMe3HLCHdrdiNX5U+Yu7qaUBNqQmxlnBTV4PyR140QwnGt5HurbECPvDlAmRCiFaQXu4l3Ocpa3e+wDKFnLZkQ7sOzl0YnkuQPlhys50LuGtLjUlHEePFmJoRluViB6pxh0LUJi7LU+WXNGI1aj38Ufel8dLD+i74j9lSQ8jJYQr3we1MzJdzZsQYH759k6aneinifeEaESRVsc7LPf7IgrEz4Mt+Bh/X6eMnKmnDNBGQDypww9D5e2cqcsHCI2RMW7V7MZCcsg0I0isSYAeGg3hzTjAWScbwu4Z379bFsDr7WJhx4X78qrhPXJoS77Mrm4GttQvj94oapcbcmIdz07LWoYWrAju5TakLUUx4k2H5QhsZwX73X1IQ7txDxvV5EvaC+ppGesChb10XrChU3TYt/KLv0SYRcmIpwP/780tXyS5sqLzUK78UAMOUoxnlTNkKkrgysrOkId3bKg6vb+EtJ0O3da5Uo6f9G4eKreyvw3QAAAABJRU5ErkJggg==;" vertex="1" parent="1">
          <mxGeometry x="204" y="640" width="65" height="65" as="geometry" />
        </mxCell>
        <mxCell id="fcOKzoYQkx1dZIKBnOqn-22" value="" style="whiteSpace=wrap;html=1;aspect=fixed;" vertex="1" parent="1">
          <mxGeometry x="260" y="280" width="80" height="80" as="geometry" />
        </mxCell>
        <mxCell id="fcOKzoYQkx1dZIKBnOqn-23" value="" style="whiteSpace=wrap;html=1;fillColor=none;strokeWidth=7;" vertex="1" parent="1">
          <mxGeometry x="160" y="10" width="520" height="730" as="geometry" />
        </mxCell>
        <mxCell id="fcOKzoYQkx1dZIKBnOqn-24" value="" style="shape=image;verticalLabelPosition=bottom;labelBackgroundColor=default;verticalAlign=top;aspect=fixed;imageAspect=0;image=data:image/png,iVBORw0KGgoAAAANSUhEUgAAARcAAACDCAMAAACQja8HAAAAolBMVEX///8Ab7YSn9sRl9AEe78Nk9K/2+1/t9omk80/k8gJh8gih8MPd7rv9vry8vKfyeRfpdEvisPP5PHf7fav0ugfgb9PnM2PwN9vrtYQmdYLjc0Ae7YOj8sCdLlNt+T4+PjE5/Yhpd1OXGRrw+k8lL7U4uqn2/K8wsVveoGY1e+Jz+0Dgr210eM/seKxt7tkcHebo6dUqNBvtNYAcrF+vNjj6u7LKpNJAAAHuUlEQVR4nO2c2WKbOBSGEWYJWwCzu3YmbaerOzNtp/P+rzbS0U5w7MQ0toj+K5kQgr6cTQcZx7GysrKysrKysrKyegFFSFVw6du5Glku04rQjctVWi5ChIs/DL47DJaLIsIF+b7nxrHloshymZblMi3LZVqWy7RsPprWa69fAnSKLBfLhQpzEf5ygxIxTo76UVS/+M2+oAgXf+NuBjcGLhsfD4YNcIkHPPD9aS4hQm328vf7UiJcYs/1fBcBFy/GA5yekyN5ek3cq1wumOdyiZDn7xYM5plcsLkM7pLBPJNLgTwckDGY9hI3/QJ6JpcG+SRT+QgtNCsRLrja97FXABcY4APJo+uAirgRkYeai9z271Eg1SFsFUwJasS4QYlyvFN+Ay6AUlraDIuq+U6qcQ+JXCCE8EINpr/0bOYTQk3C1CDEh4mHUjFOkaeMxekJ5xIzLj5KiP2tLz2lWYRo1GSR84R1gDjdHXMZhB2VvfEehSDTbDZu7BMumxgPXA+4xBs88GPg4vl4gM8q5enu2I9c1cVKw82GcEEkA3vA5XieFqczLiLu4gCTbFdEW+yGCIWXntpZOpuLyNOuu5La7lB06amdpbO5OCUPMCuVi+lJ+3wuHdoNYywrz3BzmYFLltLIq2KJETI/7p6Xp9dFChFGxZKYHHWrkAjXcjdMeDY3cuyJsSdPuWmUMZ58GGEoaOfr5oKzUXHp2T1f3VlLACnP17xoS3K0yQuCEO28MxXHMXcr7Dxx3HgECmqMTkW4gF+t3JmEDYXbT2t4G2ZOLgOJtQ0OV7XhaciZlws2l53BKUjTjFwgNe8W0veej8sA5mJwatYUIm8mLrSSqy49oZkUEC5zgFktKbrA87BZuND10FKii0OWRtuZuGwR6i49m/kUoWQGLnRBlFx6MjOqfyTA/HXvOB/fnojF/K6CpvqRAFM5n/527k/DsjW5qzClFG0OcLlzPr3759Y5ajArmosM782NVRx0pDvn87t33527U7B4KF1OLgIFBx3prXP7+buTnYbF8A73hBqyFJgE88W5dZz3p2HJLz2N2ZUfjrx3X78eiS4cy7JiLlWDmgdgVsM0hwNYlrJc1FRDzauC2e7f7E+gMiwaC6l5dysJZpW8wfpxLA3xLvduUeW/pmqH0v1+v8Xa7wmU/c/KqY7VLfxR6wJDLhf2pH/fcO1/0J71xxOMBRf/6ZKq/7F6hNo/sX79qmVn6ZEMLfYrLHrvu0OqXhTeYv2hHjwERj47S5caWoQwmOK/MZlJMPKpPIqW0rZ8RNiVmm+3IzJfDkDZNsY/UTxZdYpN5sMtRcPZ3MusNIinzxvyoLVZbhoaqSLvpuBkAA5W9n6lC6Cg5NVQIQqIe0S5REP04afcphADlLRYcm6eVB7Rrbf5N5XMr7fbbdwAEwzF8Efyz1TVl2xPQsTViG0uUfg6Yu20qryHLVDaFuUozF+d90wqCIKabNoIlrLb38rKysrKymoBWj+5LqleQ7kbPXmreo7r3t9zL1ekipT3T/sVslBa/KoxeDoXZPw3Fk+Q5TIty2Valsu0LJdpWS7TslwUVSFrbK91LkEBXd2oGz1uzlvS0Gxa+lhE55L1qdzLUBekuEnlBaqIbIvJOuiINsVVF8pZLxu2US65rJW3mqv2UMsub0PqOe3n8FCFX6AUJ6bshILsAAnlBa74gdNaNva54HiuNbnlK8UK7dRQ45LRH6b0AtqJEVxAf4E8uuL3K63HPX7GJR8d42CK0fFK4cItKTx4gTGXq932nFFbb4ouF4+ICJc1m0yfdwU1KLo2DKlBtGEQtjDMBZeMHmDbPNirRqOw7nqKi7ysjXPBf68Oo/R6XwUTyn+w43Sp4AKMUrocZAGITLeik6U7OUgASoUfcb+je4IygFnSwJrRv1ILLv217xvKYDIiLTCnYk7QiLuHjyRqgBfJjZZrEjeBS8VmzFDSr+yX+gUazuWKoy0T3K/Sb+kYl1bDxT7XTqbjogICzFgK/jNib+qXAwDomnIx4O2H7ej2qf/Quar7bzPKL2DuoAkJyT1BcH6rvM8up94GXK7diRxq11pOgEhAw4i2S66EE8OpaUku8krTL3gu4O9db26WYjFTqgYuwciNqB9QLg+mpU2caZpLBFxM2Ac+Hxda1/BQNc2lBy4mrKUe+FH/PD/ChQgN2SzVTHLB6d0ULpNxtyHf49PTRkX/3YEydSFuc4UKRvMqKVO45KP779hnlpeFIvoZ0sz4u3nCFwEM2wEPee3hRl5TuNC6TlgArevWzA9SMS/ARQILTF0aUi3qOrhYKcEAcFnXVTUdmsKFrQNYXU4/wLTBQNiG9oyvhPg6gC1rSE+hUWM3BUPrPnUdULUcsjFcqMGThWDY0vUhdRO2IigL9mIxHp7ZK7miPqS9LJy1JBenSoWZ8IVniC+cijBuDpdMNo+QEh9owlZ0oM+AKSpcGE4IWOM+A5iOOVxGYOQXhwKtMROJUNFrs83H/To4CkO9sUWDu0FccFiREyiUXFO1kpZaywSywQfxg5wmMw8xk5RdQHahUhbaCVRznmVnHYktadSNEmsFsaVs81FmrguoB9mrl9dto7V/G/nliTVs+S0LcaAqUpNf7GdlZWVlZWVlZWVlZWVltTj9D5dEcSecKg8kAAAAAElFTkSuQmCC;" vertex="1" parent="1">
          <mxGeometry x="160" y="10" width="127.79" height="60" as="geometry" />
        </mxCell>
      </root>
    </mxGraphModel>
  </diagram>
</mxfile>
